<?xml version="1.0" encoding="UTF-8" standalone="no"?>
<!-- Created with Inkscape (http://www.inkscape.org/) -->

<svg
   xmlns:dc="http://purl.org/dc/elements/1.1/"
   xmlns:cc="http://creativecommons.org/ns#"
   xmlns:rdf="http://www.w3.org/1999/02/22-rdf-syntax-ns#"
   xmlns:svg="http://www.w3.org/2000/svg"
   xmlns="http://www.w3.org/2000/svg"
   xmlns:sodipodi="http://sodipodi.sourceforge.net/DTD/sodipodi-0.dtd"
   xmlns:inkscape="http://www.inkscape.org/namespaces/inkscape"
   id="svg2995"
   version="1.1"
   inkscape:version="0.48.0 r9654"
   width="444"
   height="172"
   sodipodi:docname="Mobile_Suit_Z_Gundam_Wikipedia_en_Español.svg">
  <metadata
     id="metadata3001">
    <rdf:RDF>
      <cc:Work
         rdf:about="">
        <dc:format>image/svg+xml</dc:format>
        <dc:type
           rdf:resource="http://purl.org/dc/dcmitype/StillImage" />
        <dc:title></dc:title>
      </cc:Work>
    </rdf:RDF>
  </metadata>
  <defs
     id="defs2999" />
  <sodipodi:namedview
     pagecolor="#ffffff"
     bordercolor="#666666"
     borderopacity="1"
     objecttolerance="10"
     gridtolerance="10"
     guidetolerance="10"
     inkscape:pageopacity="0"
     inkscape:pageshadow="2"
     inkscape:window-width="1366"
     inkscape:window-height="706"
     id="namedview2997"
     showgrid="false"
     showguides="true"
     inkscape:guide-bbox="true"
     inkscape:zoom="1.2596718"
     inkscape:cx="176.04869"
     inkscape:cy="80.224216"
     inkscape:window-x="-8"
     inkscape:window-y="-8"
     inkscape:window-maximized="1"
     inkscape:current-layer="svg2995">
    <sodipodi:guide
       orientation="0,1"
       position="-1612.1744,1050.8324"
       id="guide3835" />
  </sodipodi:namedview>
  <g
     transform="matrix(-1.0027657,0,0,0.99454329,108.29939,321.25366)"
     id="g3159-7-6"
     style="fill:#aaeeff">
    <path
       style="fill:#aaeeff;fill-rule:nonzero"
       inkscape:connector-curvature="0"
       id="path18-9-3"
       d="m 136.25,12.898 c 0,0.5283 -0.4319,0.9617 -0.96021,0.9617 -0.52531,0 -0.96021,-0.4334 -0.96021,-0.9617 0,-0.52382 0.4349,-0.95872 0.96021,-0.95872 0.52831,0 0.96021,0.4349 0.96021,0.95872" />
    <path
       style="fill:#aaeeff;fill-rule:nonzero"
       inkscape:connector-curvature="0"
       id="path20-5-0"
       d="m 142.91,27.44 c 0,0.64786 -0.53727,1.1806 -1.1821,1.1806 -0.64935,0 -1.1836,-0.53278 -1.1836,-1.1806 0,-0.64637 0.53428,-1.1792 1.1836,-1.1792 0.64487,0 1.1821,0.53279 1.1821,1.1792" />
    <path
       style="fill:#aaeeff;fill-rule:nonzero"
       inkscape:connector-curvature="0"
       id="path22-43-1"
       d="m 160.19,51.206 c 0,0.64674 -0.53241,1.1806 -1.1821,1.1806 -0.64637,0 -1.1821,-0.53391 -1.1821,-1.1806 0,-0.64786 0.49617,-1.1821 1.1459,-1.1821 0.64935,0 1.2184,0.53428 1.2184,1.1821" />
    <path
       style="fill:#aaeeff;fill-rule:nonzero"
       inkscape:connector-curvature="0"
       id="path24-1-9"
       d="m 132.41,35.633 c 0,0.52681 -0.43191,0.95871 -0.96021,0.95871 -0.52718,0 -0.96208,-0.43191 -0.96208,-0.95871 0,-0.52569 0.4349,-0.96058 0.96208,-0.96058 0.5283,0 0.96021,0.4349 0.96021,0.96058" />
    <path
       style="fill:#aaeeff;fill-rule:nonzero"
       inkscape:connector-curvature="0"
       id="path26-2-0"
       d="m 142.76,41.096 c 0,0.52382 -0.43377,0.95871 -0.95908,0.95871 -0.52681,0 -0.96171,-0.4349 -0.96171,-0.95871 0,-0.52531 0.4349,-0.95909 0.96171,-0.95909 0.52531,0 0.95908,0.43378 0.95908,0.95909" />
    <path
       style="fill:#aaeeff;fill-rule:nonzero"
       inkscape:connector-curvature="0"
       id="path28-3-4"
       d="m 129.31,25.815 c 0,0.64823 -0.53391,1.1806 -1.1821,1.1806 -0.64786,0 -1.1821,-0.53241 -1.1821,-1.1806 0,-0.64786 0.53428,-1.1821 1.1821,-1.1821 0.64823,0 1.1821,0.53428 1.1821,1.1821" />
    <path
       style="fill:#aaeeff;fill-rule:nonzero"
       inkscape:connector-curvature="0"
       id="path30-3-2"
       d="m 113.65,35.338 c 0,0.52681 -0.4334,0.96021 -0.9617,0.96021 -0.52681,0 -0.96021,-0.4334 -0.96021,-0.96021 0,-0.52569 0.4334,-0.96058 0.96021,-0.96058 0.5283,0 0.9617,0.4349 0.9617,0.96058" />
    <path
       style="fill:#aaeeff;fill-rule:nonzero"
       inkscape:connector-curvature="0"
       id="path32-4-9"
       d="m 116.45,37.255 c 0,0.52868 -0.4334,0.96208 -0.9617,0.96208 -0.52681,0 -0.9617,-0.4334 -0.9617,-0.96208 0,-0.52531 0.43489,-0.95722 0.9617,-0.95722 0.5283,0 0.9617,0.43191 0.9617,0.95722" />
    <path
       style="fill:#aaeeff;fill-rule:nonzero"
       inkscape:connector-curvature="0"
       id="path34-1-3"
       d="m 119.26,39.175 c 0,0.5283 -0.43341,0.9617 -0.96059,0.9617 -0.5268,0 -0.9617,-0.4334 -0.9617,-0.9617 0,-0.52382 0.4349,-0.95722 0.9617,-0.95722 0.52718,0 0.96059,0.4334 0.96059,0.95722" />
    <path
       style="fill:#aaeeff;fill-rule:nonzero"
       inkscape:connector-curvature="0"
       id="path36-1-1"
       d="m 114.98,42.867 c 0,0.52681 -0.43639,0.96021 -0.96171,0.96021 -0.5283,0 -0.96207,-0.4334 -0.96207,-0.96021 0,-0.52531 0.43377,-0.95871 0.96207,-0.95871 0.52532,0 0.96171,0.4334 0.96171,0.95871" />
    <path
       style="fill:#aaeeff;fill-rule:nonzero"
       inkscape:connector-curvature="0"
       id="path38-3-4"
       d="m 92.664,58.514 c 0,0.52681 -0.4349,0.95872 -0.9617,0.95872 -0.52681,0 -0.9617,-0.43191 -0.9617,-0.95872 0,-0.52681 0.4349,-0.96058 0.9617,-0.96058 0.52681,0 0.9617,0.43378 0.9617,0.96058" />
    <path
       style="fill:#aaeeff;fill-rule:nonzero"
       inkscape:connector-curvature="0"
       id="path40-8-8"
       d="m 96.8,63.535 c 0,0.52569 -0.4349,0.95909 -0.9617,0.95909 -0.52681,0 -0.9617,-0.4334 -0.9617,-0.95909 0,-0.5283 0.4349,-0.96021 0.9617,-0.96021 0.52681,0 0.9617,0.43191 0.9617,0.96021" />
    <path
       style="fill:#aaeeff;fill-rule:nonzero"
       inkscape:connector-curvature="0"
       id="path96-74-2"
       d="m 105.26,60.505 c 0,0.81001 -0.66691,1.4754 -1.4769,1.4754 -0.81301,0 -1.4784,-0.66542 -1.4784,-1.4754 0,-0.81001 0.66542,-1.4754 1.4784,-1.4754 0.81001,0 1.4769,0.66542 1.4769,1.4754" />
    <path
       style="fill:#aaeeff;fill-rule:nonzero"
       inkscape:connector-curvature="0"
       id="path98-2-0"
       d="m 103.78,56.003 -0.44387,4.0587 -4.028,0.44386 4.0646,0.44087 0.44386,4.2089 0.442,-4.2089 3.9903,-0.51373 -4.028,-0.37101 -0.44087,-4.0587" />
    <path
       style="fill:#aaeeff;fill-rule:nonzero"
       inkscape:connector-curvature="0"
       id="path100-7-5"
       d="m 160.23,24.783 c 0,0.81001 -0.66841,1.4769 -1.4784,1.4769 -0.81001,0 -1.4739,-0.66692 -1.4739,-1.4769 0,-0.81001 0.66393,-1.4769 1.4739,-1.4769 0.81001,0 1.4784,0.66692 1.4784,1.4769" />
    <path
       style="fill:#aaeeff;fill-rule:nonzero"
       inkscape:connector-curvature="0"
       id="path102-7-5"
       d="m 158.75,20.277 -0.44088,4.0602 -4.028,0.44386 4.0646,0.44349 0.44087,4.2077 0.44499,-4.2077 3.9888,-0.51821 -4.028,-0.36914 -0.44237,-4.0602" />
  </g>
  <g
     transform="matrix(-0.82661497,0,0,0.81983696,100.7298,350.39502)"
     id="g3159-0-9">
    <path
       style="fill:#ffffff;fill-rule:nonzero"
       inkscape:connector-curvature="0"
       id="path18-6-1"
       d="m 136.25,12.898 c 0,0.5283 -0.4319,0.9617 -0.96021,0.9617 -0.52531,0 -0.96021,-0.4334 -0.96021,-0.9617 0,-0.52382 0.4349,-0.95872 0.96021,-0.95872 0.52831,0 0.96021,0.4349 0.96021,0.95872" />
    <path
       style="fill:#ffffff;fill-rule:nonzero"
       inkscape:connector-curvature="0"
       id="path20-18-8"
       d="m 142.91,27.44 c 0,0.64786 -0.53727,1.1806 -1.1821,1.1806 -0.64935,0 -1.1836,-0.53278 -1.1836,-1.1806 0,-0.64637 0.53428,-1.1792 1.1836,-1.1792 0.64487,0 1.1821,0.53279 1.1821,1.1792" />
    <path
       style="fill:#ffffff;fill-rule:nonzero"
       inkscape:connector-curvature="0"
       id="path22-9-2"
       d="m 160.19,51.206 c 0,0.64674 -0.53241,1.1806 -1.1821,1.1806 -0.64637,0 -1.1821,-0.53391 -1.1821,-1.1806 0,-0.64786 0.49617,-1.1821 1.1459,-1.1821 0.64935,0 1.2184,0.53428 1.2184,1.1821" />
    <path
       style="fill:#ffffff;fill-rule:nonzero"
       inkscape:connector-curvature="0"
       id="path24-8-8"
       d="m 132.41,35.633 c 0,0.52681 -0.43191,0.95871 -0.96021,0.95871 -0.52718,0 -0.96208,-0.43191 -0.96208,-0.95871 0,-0.52569 0.4349,-0.96058 0.96208,-0.96058 0.5283,0 0.96021,0.4349 0.96021,0.96058" />
    <path
       style="fill:#ffffff;fill-rule:nonzero"
       inkscape:connector-curvature="0"
       id="path26-41-0"
       d="m 142.76,41.096 c 0,0.52382 -0.43377,0.95871 -0.95908,0.95871 -0.52681,0 -0.96171,-0.4349 -0.96171,-0.95871 0,-0.52531 0.4349,-0.95909 0.96171,-0.95909 0.52531,0 0.95908,0.43378 0.95908,0.95909" />
    <path
       style="fill:#ffffff;fill-rule:nonzero"
       inkscape:connector-curvature="0"
       id="path28-4-1"
       d="m 129.31,25.815 c 0,0.64823 -0.53391,1.1806 -1.1821,1.1806 -0.64786,0 -1.1821,-0.53241 -1.1821,-1.1806 0,-0.64786 0.53428,-1.1821 1.1821,-1.1821 0.64823,0 1.1821,0.53428 1.1821,1.1821" />
    <path
       style="fill:#ffffff;fill-rule:nonzero"
       inkscape:connector-curvature="0"
       id="path30-39-8"
       d="m 113.65,35.338 c 0,0.52681 -0.4334,0.96021 -0.9617,0.96021 -0.52681,0 -0.96021,-0.4334 -0.96021,-0.96021 0,-0.52569 0.4334,-0.96058 0.96021,-0.96058 0.5283,0 0.9617,0.4349 0.9617,0.96058" />
    <path
       style="fill:#ffffff;fill-rule:nonzero"
       inkscape:connector-curvature="0"
       id="path32-8-4"
       d="m 116.45,37.255 c 0,0.52868 -0.4334,0.96208 -0.9617,0.96208 -0.52681,0 -0.9617,-0.4334 -0.9617,-0.96208 0,-0.52531 0.43489,-0.95722 0.9617,-0.95722 0.5283,0 0.9617,0.43191 0.9617,0.95722" />
    <path
       style="fill:#ffffff;fill-rule:nonzero"
       inkscape:connector-curvature="0"
       id="path34-8-8"
       d="m 119.26,39.175 c 0,0.5283 -0.43341,0.9617 -0.96059,0.9617 -0.5268,0 -0.9617,-0.4334 -0.9617,-0.9617 0,-0.52382 0.4349,-0.95722 0.9617,-0.95722 0.52718,0 0.96059,0.4334 0.96059,0.95722" />
    <path
       style="fill:#ffffff;fill-rule:nonzero"
       inkscape:connector-curvature="0"
       id="path36-0-6"
       d="m 114.98,42.867 c 0,0.52681 -0.43639,0.96021 -0.96171,0.96021 -0.5283,0 -0.96207,-0.4334 -0.96207,-0.96021 0,-0.52531 0.43377,-0.95871 0.96207,-0.95871 0.52532,0 0.96171,0.4334 0.96171,0.95871" />
    <path
       style="fill:#ffffff;fill-rule:nonzero"
       inkscape:connector-curvature="0"
       id="path38-87-0"
       d="m 92.664,58.514 c 0,0.52681 -0.4349,0.95872 -0.9617,0.95872 -0.52681,0 -0.9617,-0.43191 -0.9617,-0.95872 0,-0.52681 0.4349,-0.96058 0.9617,-0.96058 0.52681,0 0.9617,0.43378 0.9617,0.96058" />
    <path
       style="fill:#ffffff;fill-rule:nonzero"
       inkscape:connector-curvature="0"
       id="path40-7-9"
       d="m 96.8,63.535 c 0,0.52569 -0.4349,0.95909 -0.9617,0.95909 -0.52681,0 -0.9617,-0.4334 -0.9617,-0.95909 0,-0.5283 0.4349,-0.96021 0.9617,-0.96021 0.52681,0 0.9617,0.43191 0.9617,0.96021" />
    <path
       style="fill:#ffffff;fill-rule:nonzero"
       inkscape:connector-curvature="0"
       id="path96-8-3"
       d="m 105.26,60.505 c 0,0.81001 -0.66691,1.4754 -1.4769,1.4754 -0.81301,0 -1.4784,-0.66542 -1.4784,-1.4754 0,-0.81001 0.66542,-1.4754 1.4784,-1.4754 0.81001,0 1.4769,0.66542 1.4769,1.4754" />
    <path
       style="fill:#ffffff;fill-rule:nonzero"
       inkscape:connector-curvature="0"
       id="path98-3-0"
       d="m 103.78,56.003 -0.44387,4.0587 -4.028,0.44386 4.0646,0.44087 0.44386,4.2089 0.442,-4.2089 3.9903,-0.51373 -4.028,-0.37101 -0.44087,-4.0587" />
    <path
       style="fill:#ffffff;fill-rule:nonzero"
       inkscape:connector-curvature="0"
       id="path100-83-0"
       d="m 160.23,24.783 c 0,0.81001 -0.66841,1.4769 -1.4784,1.4769 -0.81001,0 -1.4739,-0.66692 -1.4739,-1.4769 0,-0.81001 0.66393,-1.4769 1.4739,-1.4769 0.81001,0 1.4784,0.66692 1.4784,1.4769" />
    <path
       style="fill:#ffffff;fill-rule:nonzero"
       inkscape:connector-curvature="0"
       id="path102-71-8"
       d="m 158.75,20.277 -0.44088,4.0602 -4.028,0.44386 4.0646,0.44349 0.44087,4.2077 0.44499,-4.2077 3.9888,-0.51821 -4.028,-0.36914 -0.44237,-4.0602" />
  </g>
  <g
     transform="matrix(0.4415994,-1.1279733,1.135073,0.44865778,-114.90122,480.18831)"
     id="g3159-06-7">
    <path
       style="fill:#ffffff;fill-rule:nonzero"
       inkscape:connector-curvature="0"
       id="path18-8-6"
       d="m 136.25,12.898 c 0,0.5283 -0.4319,0.9617 -0.96021,0.9617 -0.52531,0 -0.96021,-0.4334 -0.96021,-0.9617 0,-0.52382 0.4349,-0.95872 0.96021,-0.95872 0.52831,0 0.96021,0.4349 0.96021,0.95872" />
    <path
       style="fill:#ffffff;fill-rule:nonzero"
       inkscape:connector-curvature="0"
       id="path20-198-3"
       d="m 142.91,27.44 c 0,0.64786 -0.53727,1.1806 -1.1821,1.1806 -0.64935,0 -1.1836,-0.53278 -1.1836,-1.1806 0,-0.64637 0.53428,-1.1792 1.1836,-1.1792 0.64487,0 1.1821,0.53279 1.1821,1.1792" />
    <path
       style="fill:#ffffff;fill-rule:nonzero"
       inkscape:connector-curvature="0"
       id="path22-97-5"
       d="m 160.19,51.206 c 0,0.64674 -0.53241,1.1806 -1.1821,1.1806 -0.64637,0 -1.1821,-0.53391 -1.1821,-1.1806 0,-0.64786 0.49617,-1.1821 1.1459,-1.1821 0.64935,0 1.2184,0.53428 1.2184,1.1821" />
    <path
       style="fill:#ffffff;fill-rule:nonzero"
       inkscape:connector-curvature="0"
       id="path24-22-6"
       d="m 132.41,35.633 c 0,0.52681 -0.43191,0.95871 -0.96021,0.95871 -0.52718,0 -0.96208,-0.43191 -0.96208,-0.95871 0,-0.52569 0.4349,-0.96058 0.96208,-0.96058 0.5283,0 0.96021,0.4349 0.96021,0.96058" />
    <path
       style="fill:#ffffff;fill-rule:nonzero"
       inkscape:connector-curvature="0"
       id="path26-8-5"
       d="m 142.76,41.096 c 0,0.52382 -0.43377,0.95871 -0.95908,0.95871 -0.52681,0 -0.96171,-0.4349 -0.96171,-0.95871 0,-0.52531 0.4349,-0.95909 0.96171,-0.95909 0.52531,0 0.95908,0.43378 0.95908,0.95909" />
    <path
       style="fill:#ffffff;fill-rule:nonzero"
       inkscape:connector-curvature="0"
       id="path28-28-8"
       d="m 129.31,25.815 c 0,0.64823 -0.53391,1.1806 -1.1821,1.1806 -0.64786,0 -1.1821,-0.53241 -1.1821,-1.1806 0,-0.64786 0.53428,-1.1821 1.1821,-1.1821 0.64823,0 1.1821,0.53428 1.1821,1.1821" />
    <path
       style="fill:#ffffff;fill-rule:nonzero"
       inkscape:connector-curvature="0"
       id="path30-9-3"
       d="m 113.65,35.338 c 0,0.52681 -0.4334,0.96021 -0.9617,0.96021 -0.52681,0 -0.96021,-0.4334 -0.96021,-0.96021 0,-0.52569 0.4334,-0.96058 0.96021,-0.96058 0.5283,0 0.9617,0.4349 0.9617,0.96058" />
    <path
       style="fill:#ffffff;fill-rule:nonzero"
       inkscape:connector-curvature="0"
       id="path32-07-9"
       d="m 116.45,37.255 c 0,0.52868 -0.4334,0.96208 -0.9617,0.96208 -0.52681,0 -0.9617,-0.4334 -0.9617,-0.96208 0,-0.52531 0.43489,-0.95722 0.9617,-0.95722 0.5283,0 0.9617,0.43191 0.9617,0.95722" />
    <path
       style="fill:#ffffff;fill-rule:nonzero"
       inkscape:connector-curvature="0"
       id="path34-81-4"
       d="m 119.26,39.175 c 0,0.5283 -0.43341,0.9617 -0.96059,0.9617 -0.5268,0 -0.9617,-0.4334 -0.9617,-0.9617 0,-0.52382 0.4349,-0.95722 0.9617,-0.95722 0.52718,0 0.96059,0.4334 0.96059,0.95722" />
    <path
       style="fill:#ffffff;fill-rule:nonzero"
       inkscape:connector-curvature="0"
       id="path36-58-8"
       d="m 114.98,42.867 c 0,0.52681 -0.43639,0.96021 -0.96171,0.96021 -0.5283,0 -0.96207,-0.4334 -0.96207,-0.96021 0,-0.52531 0.43377,-0.95871 0.96207,-0.95871 0.52532,0 0.96171,0.4334 0.96171,0.95871" />
    <path
       style="fill:#ffffff;fill-rule:nonzero"
       inkscape:connector-curvature="0"
       id="path38-6-3"
       d="m 92.664,58.514 c 0,0.52681 -0.4349,0.95872 -0.9617,0.95872 -0.52681,0 -0.9617,-0.43191 -0.9617,-0.95872 0,-0.52681 0.4349,-0.96058 0.9617,-0.96058 0.52681,0 0.9617,0.43378 0.9617,0.96058" />
    <path
       style="fill:#ffffff;fill-rule:nonzero"
       inkscape:connector-curvature="0"
       id="path40-12-9"
       d="m 96.8,63.535 c 0,0.52569 -0.4349,0.95909 -0.9617,0.95909 -0.52681,0 -0.9617,-0.4334 -0.9617,-0.95909 0,-0.5283 0.4349,-0.96021 0.9617,-0.96021 0.52681,0 0.9617,0.43191 0.9617,0.96021" />
    <path
       style="fill:#ffffff;fill-rule:nonzero"
       inkscape:connector-curvature="0"
       id="path96-4-7"
       d="m 105.26,60.505 c 0,0.81001 -0.66691,1.4754 -1.4769,1.4754 -0.81301,0 -1.4784,-0.66542 -1.4784,-1.4754 0,-0.81001 0.66542,-1.4754 1.4784,-1.4754 0.81001,0 1.4769,0.66542 1.4769,1.4754" />
    <path
       style="fill:#ffffff;fill-rule:nonzero"
       inkscape:connector-curvature="0"
       id="path98-25-6"
       d="m 103.78,56.003 -0.44387,4.0587 -4.028,0.44386 4.0646,0.44087 0.44386,4.2089 0.442,-4.2089 3.9903,-0.51373 -4.028,-0.37101 -0.44087,-4.0587" />
    <path
       style="fill:#ffffff;fill-rule:nonzero"
       inkscape:connector-curvature="0"
       id="path100-86-4"
       d="m 160.23,24.783 c 0,0.81001 -0.66841,1.4769 -1.4784,1.4769 -0.81001,0 -1.4739,-0.66692 -1.4739,-1.4769 0,-0.81001 0.66393,-1.4769 1.4739,-1.4769 0.81001,0 1.4784,0.66692 1.4784,1.4769" />
    <path
       style="fill:#ffffff;fill-rule:nonzero"
       inkscape:connector-curvature="0"
       id="path102-26-5"
       d="m 158.75,20.277 -0.44088,4.0602 -4.028,0.44386 4.0646,0.44349 0.44087,4.2077 0.44499,-4.2077 3.9888,-0.51821 -4.028,-0.36914 -0.44237,-4.0602" />
  </g>
  <g
     transform="matrix(-0.90567648,0.16500771,-0.18299036,-0.80333666,248.30578,417.74043)"
     id="g3159-2-4">
    <path
       style="fill:#ffffff;fill-rule:nonzero"
       inkscape:connector-curvature="0"
       id="path18-76-9"
       d="m 136.25,12.898 c 0,0.5283 -0.4319,0.9617 -0.96021,0.9617 -0.52531,0 -0.96021,-0.4334 -0.96021,-0.9617 0,-0.52382 0.4349,-0.95872 0.96021,-0.95872 0.52831,0 0.96021,0.4349 0.96021,0.95872" />
    <path
       style="fill:#ffffff;fill-rule:nonzero"
       inkscape:connector-curvature="0"
       id="path20-1-6"
       d="m 142.91,27.44 c 0,0.64786 -0.53727,1.1806 -1.1821,1.1806 -0.64935,0 -1.1836,-0.53278 -1.1836,-1.1806 0,-0.64637 0.53428,-1.1792 1.1836,-1.1792 0.64487,0 1.1821,0.53279 1.1821,1.1792" />
    <path
       style="fill:#ffffff;fill-rule:nonzero"
       inkscape:connector-curvature="0"
       id="path22-4-8"
       d="m 160.19,51.206 c 0,0.64674 -0.53241,1.1806 -1.1821,1.1806 -0.64637,0 -1.1821,-0.53391 -1.1821,-1.1806 0,-0.64786 0.49617,-1.1821 1.1459,-1.1821 0.64935,0 1.2184,0.53428 1.2184,1.1821" />
    <path
       style="fill:#ffffff;fill-rule:nonzero"
       inkscape:connector-curvature="0"
       id="path24-2-2"
       d="m 132.41,35.633 c 0,0.52681 -0.43191,0.95871 -0.96021,0.95871 -0.52718,0 -0.96208,-0.43191 -0.96208,-0.95871 0,-0.52569 0.4349,-0.96058 0.96208,-0.96058 0.5283,0 0.96021,0.4349 0.96021,0.96058" />
    <path
       style="fill:#ffffff;fill-rule:nonzero"
       inkscape:connector-curvature="0"
       id="path26-3-8"
       d="m 142.76,41.096 c 0,0.52382 -0.43377,0.95871 -0.95908,0.95871 -0.52681,0 -0.96171,-0.4349 -0.96171,-0.95871 0,-0.52531 0.4349,-0.95909 0.96171,-0.95909 0.52531,0 0.95908,0.43378 0.95908,0.95909" />
    <path
       style="fill:#ffffff;fill-rule:nonzero"
       inkscape:connector-curvature="0"
       id="path28-2-4"
       d="m 129.31,25.815 c 0,0.64823 -0.53391,1.1806 -1.1821,1.1806 -0.64786,0 -1.1821,-0.53241 -1.1821,-1.1806 0,-0.64786 0.53428,-1.1821 1.1821,-1.1821 0.64823,0 1.1821,0.53428 1.1821,1.1821" />
    <path
       style="fill:#ffffff;fill-rule:nonzero"
       inkscape:connector-curvature="0"
       id="path30-2-7"
       d="m 113.65,35.338 c 0,0.52681 -0.4334,0.96021 -0.9617,0.96021 -0.52681,0 -0.96021,-0.4334 -0.96021,-0.96021 0,-0.52569 0.4334,-0.96058 0.96021,-0.96058 0.5283,0 0.9617,0.4349 0.9617,0.96058" />
    <path
       style="fill:#ffffff;fill-rule:nonzero"
       inkscape:connector-curvature="0"
       id="path32-1-9"
       d="m 116.45,37.255 c 0,0.52868 -0.4334,0.96208 -0.9617,0.96208 -0.52681,0 -0.9617,-0.4334 -0.9617,-0.96208 0,-0.52531 0.43489,-0.95722 0.9617,-0.95722 0.5283,0 0.9617,0.43191 0.9617,0.95722" />
    <path
       style="fill:#ffffff;fill-rule:nonzero"
       inkscape:connector-curvature="0"
       id="path34-6-4"
       d="m 119.26,39.175 c 0,0.5283 -0.43341,0.9617 -0.96059,0.9617 -0.5268,0 -0.9617,-0.4334 -0.9617,-0.9617 0,-0.52382 0.4349,-0.95722 0.9617,-0.95722 0.52718,0 0.96059,0.4334 0.96059,0.95722" />
    <path
       style="fill:#ffffff;fill-rule:nonzero"
       inkscape:connector-curvature="0"
       id="path36-8-0"
       d="m 114.98,42.867 c 0,0.52681 -0.43639,0.96021 -0.96171,0.96021 -0.5283,0 -0.96207,-0.4334 -0.96207,-0.96021 0,-0.52531 0.43377,-0.95871 0.96207,-0.95871 0.52532,0 0.96171,0.4334 0.96171,0.95871" />
    <path
       style="fill:#ffffff;fill-rule:nonzero"
       inkscape:connector-curvature="0"
       id="path38-57-7"
       d="m 92.664,58.514 c 0,0.52681 -0.4349,0.95872 -0.9617,0.95872 -0.52681,0 -0.9617,-0.43191 -0.9617,-0.95872 0,-0.52681 0.4349,-0.96058 0.9617,-0.96058 0.52681,0 0.9617,0.43378 0.9617,0.96058" />
    <path
       style="fill:#ffffff;fill-rule:nonzero"
       inkscape:connector-curvature="0"
       id="path40-6-4"
       d="m 96.8,63.535 c 0,0.52569 -0.4349,0.95909 -0.9617,0.95909 -0.52681,0 -0.9617,-0.4334 -0.9617,-0.95909 0,-0.5283 0.4349,-0.96021 0.9617,-0.96021 0.52681,0 0.9617,0.43191 0.9617,0.96021" />
    <path
       style="fill:#ffffff;fill-rule:nonzero"
       inkscape:connector-curvature="0"
       id="path96-1-8"
       d="m 105.26,60.505 c 0,0.81001 -0.66691,1.4754 -1.4769,1.4754 -0.81301,0 -1.4784,-0.66542 -1.4784,-1.4754 0,-0.81001 0.66542,-1.4754 1.4784,-1.4754 0.81001,0 1.4769,0.66542 1.4769,1.4754" />
    <path
       style="fill:#ffffff;fill-rule:nonzero"
       inkscape:connector-curvature="0"
       id="path98-8-1"
       d="m 103.78,56.003 -0.44387,4.0587 -4.028,0.44386 4.0646,0.44087 0.44386,4.2089 0.442,-4.2089 3.9903,-0.51373 -4.028,-0.37101 -0.44087,-4.0587" />
    <path
       style="fill:#ffffff;fill-rule:nonzero"
       inkscape:connector-curvature="0"
       id="path100-9-8"
       d="m 160.23,24.783 c 0,0.81001 -0.66841,1.4769 -1.4784,1.4769 -0.81001,0 -1.4739,-0.66692 -1.4739,-1.4769 0,-0.81001 0.66393,-1.4769 1.4739,-1.4769 0.81001,0 1.4784,0.66692 1.4784,1.4769" />
    <path
       style="fill:#ffffff;fill-rule:nonzero"
       inkscape:connector-curvature="0"
       id="path102-2-2"
       d="m 158.75,20.277 -0.44088,4.0602 -4.028,0.44386 4.0646,0.44349 0.44087,4.2077 0.44499,-4.2077 3.9888,-0.51821 -4.028,-0.36914 -0.44237,-4.0602" />
  </g>
  <g
     transform="matrix(-0.23206871,1.1934228,-1.3437789,-0.21304629,173.01195,121.71882)"
     id="g3159-06-2">
    <path
       style="fill:#ffffff;fill-rule:nonzero"
       inkscape:connector-curvature="0"
       id="path18-8-7"
       d="m 136.25,12.898 c 0,0.5283 -0.4319,0.9617 -0.96021,0.9617 -0.52531,0 -0.96021,-0.4334 -0.96021,-0.9617 0,-0.52382 0.4349,-0.95872 0.96021,-0.95872 0.52831,0 0.96021,0.4349 0.96021,0.95872" />
    <path
       style="fill:#ffffff;fill-rule:nonzero"
       inkscape:connector-curvature="0"
       id="path20-198-30"
       d="m 142.91,27.44 c 0,0.64786 -0.53727,1.1806 -1.1821,1.1806 -0.64935,0 -1.1836,-0.53278 -1.1836,-1.1806 0,-0.64637 0.53428,-1.1792 1.1836,-1.1792 0.64487,0 1.1821,0.53279 1.1821,1.1792" />
    <path
       style="fill:#ffffff;fill-rule:nonzero"
       inkscape:connector-curvature="0"
       id="path22-97-7"
       d="m 160.19,51.206 c 0,0.64674 -0.53241,1.1806 -1.1821,1.1806 -0.64637,0 -1.1821,-0.53391 -1.1821,-1.1806 0,-0.64786 0.49617,-1.1821 1.1459,-1.1821 0.64935,0 1.2184,0.53428 1.2184,1.1821" />
    <path
       style="fill:#ffffff;fill-rule:nonzero"
       inkscape:connector-curvature="0"
       id="path24-22-3"
       d="m 132.41,35.633 c 0,0.52681 -0.43191,0.95871 -0.96021,0.95871 -0.52718,0 -0.96208,-0.43191 -0.96208,-0.95871 0,-0.52569 0.4349,-0.96058 0.96208,-0.96058 0.5283,0 0.96021,0.4349 0.96021,0.96058" />
    <path
       style="fill:#ffffff;fill-rule:nonzero"
       inkscape:connector-curvature="0"
       id="path26-8-0"
       d="m 142.76,41.096 c 0,0.52382 -0.43377,0.95871 -0.95908,0.95871 -0.52681,0 -0.96171,-0.4349 -0.96171,-0.95871 0,-0.52531 0.4349,-0.95909 0.96171,-0.95909 0.52531,0 0.95908,0.43378 0.95908,0.95909" />
    <path
       style="fill:#ffffff;fill-rule:nonzero"
       inkscape:connector-curvature="0"
       id="path28-28-7"
       d="m 129.31,25.815 c 0,0.64823 -0.53391,1.1806 -1.1821,1.1806 -0.64786,0 -1.1821,-0.53241 -1.1821,-1.1806 0,-0.64786 0.53428,-1.1821 1.1821,-1.1821 0.64823,0 1.1821,0.53428 1.1821,1.1821" />
    <path
       style="fill:#ffffff;fill-rule:nonzero"
       inkscape:connector-curvature="0"
       id="path30-9-36"
       d="m 113.65,35.338 c 0,0.52681 -0.4334,0.96021 -0.9617,0.96021 -0.52681,0 -0.96021,-0.4334 -0.96021,-0.96021 0,-0.52569 0.4334,-0.96058 0.96021,-0.96058 0.5283,0 0.9617,0.4349 0.9617,0.96058" />
    <path
       style="fill:#ffffff;fill-rule:nonzero"
       inkscape:connector-curvature="0"
       id="path32-07-4"
       d="m 116.45,37.255 c 0,0.52868 -0.4334,0.96208 -0.9617,0.96208 -0.52681,0 -0.9617,-0.4334 -0.9617,-0.96208 0,-0.52531 0.43489,-0.95722 0.9617,-0.95722 0.5283,0 0.9617,0.43191 0.9617,0.95722" />
    <path
       style="fill:#ffffff;fill-rule:nonzero"
       inkscape:connector-curvature="0"
       id="path34-81-6"
       d="m 119.26,39.175 c 0,0.5283 -0.43341,0.9617 -0.96059,0.9617 -0.5268,0 -0.9617,-0.4334 -0.9617,-0.9617 0,-0.52382 0.4349,-0.95722 0.9617,-0.95722 0.52718,0 0.96059,0.4334 0.96059,0.95722" />
    <path
       style="fill:#ffffff;fill-rule:nonzero"
       inkscape:connector-curvature="0"
       id="path36-58-7"
       d="m 114.98,42.867 c 0,0.52681 -0.43639,0.96021 -0.96171,0.96021 -0.5283,0 -0.96207,-0.4334 -0.96207,-0.96021 0,-0.52531 0.43377,-0.95871 0.96207,-0.95871 0.52532,0 0.96171,0.4334 0.96171,0.95871" />
    <path
       style="fill:#ffffff;fill-rule:nonzero"
       inkscape:connector-curvature="0"
       id="path38-6-4"
       d="m 92.664,58.514 c 0,0.52681 -0.4349,0.95872 -0.9617,0.95872 -0.52681,0 -0.9617,-0.43191 -0.9617,-0.95872 0,-0.52681 0.4349,-0.96058 0.9617,-0.96058 0.52681,0 0.9617,0.43378 0.9617,0.96058" />
    <path
       style="fill:#ffffff;fill-rule:nonzero"
       inkscape:connector-curvature="0"
       id="path40-12-0"
       d="m 96.8,63.535 c 0,0.52569 -0.4349,0.95909 -0.9617,0.95909 -0.52681,0 -0.9617,-0.4334 -0.9617,-0.95909 0,-0.5283 0.4349,-0.96021 0.9617,-0.96021 0.52681,0 0.9617,0.43191 0.9617,0.96021" />
    <path
       style="fill:#ffffff;fill-rule:nonzero"
       inkscape:connector-curvature="0"
       id="path96-4-1"
       d="m 105.26,60.505 c 0,0.81001 -0.66691,1.4754 -1.4769,1.4754 -0.81301,0 -1.4784,-0.66542 -1.4784,-1.4754 0,-0.81001 0.66542,-1.4754 1.4784,-1.4754 0.81001,0 1.4769,0.66542 1.4769,1.4754" />
    <path
       style="fill:#ffffff;fill-rule:nonzero"
       inkscape:connector-curvature="0"
       id="path98-25-2"
       d="m 103.78,56.003 -0.44387,4.0587 -4.028,0.44386 4.0646,0.44087 0.44386,4.2089 0.442,-4.2089 3.9903,-0.51373 -4.028,-0.37101 -0.44087,-4.0587" />
    <path
       style="fill:#ffffff;fill-rule:nonzero"
       inkscape:connector-curvature="0"
       id="path100-86-44"
       d="m 160.23,24.783 c 0,0.81001 -0.66841,1.4769 -1.4784,1.4769 -0.81001,0 -1.4739,-0.66692 -1.4739,-1.4769 0,-0.81001 0.66393,-1.4769 1.4739,-1.4769 0.81001,0 1.4784,0.66692 1.4784,1.4769" />
    <path
       style="fill:#ffffff;fill-rule:nonzero"
       inkscape:connector-curvature="0"
       id="path102-26-6"
       d="m 158.75,20.277 -0.44088,4.0602 -4.028,0.44386 4.0646,0.44349 0.44087,4.2077 0.44499,-4.2077 3.9888,-0.51821 -4.028,-0.36914 -0.44237,-4.0602" />
  </g>
  <g
     transform="matrix(0.70453012,-0.39111874,-0.43838844,-0.62407313,66.07201,401.43811)"
     id="g3159-1-5-1">
    <path
       style="fill:#ffffff;fill-rule:nonzero"
       inkscape:connector-curvature="0"
       id="path18-7-6-1"
       d="m 136.25,12.898 c 0,0.5283 -0.4319,0.9617 -0.96021,0.9617 -0.52531,0 -0.96021,-0.4334 -0.96021,-0.9617 0,-0.52382 0.4349,-0.95872 0.96021,-0.95872 0.52831,0 0.96021,0.4349 0.96021,0.95872" />
    <path
       style="fill:#ffffff;fill-rule:nonzero"
       inkscape:connector-curvature="0"
       id="path20-4-1-1"
       d="m 142.91,27.44 c 0,0.64786 -0.53727,1.1806 -1.1821,1.1806 -0.64935,0 -1.1836,-0.53278 -1.1836,-1.1806 0,-0.64637 0.53428,-1.1792 1.1836,-1.1792 0.64487,0 1.1821,0.53279 1.1821,1.1792" />
    <path
       style="fill:#ffffff;fill-rule:nonzero"
       inkscape:connector-curvature="0"
       id="path22-0-8-0"
       d="m 160.19,51.206 c 0,0.64674 -0.53241,1.1806 -1.1821,1.1806 -0.64637,0 -1.1821,-0.53391 -1.1821,-1.1806 0,-0.64786 0.49617,-1.1821 1.1459,-1.1821 0.64935,0 1.2184,0.53428 1.2184,1.1821" />
    <path
       style="fill:#ffffff;fill-rule:nonzero"
       inkscape:connector-curvature="0"
       id="path24-9-1-8"
       d="m 132.41,35.633 c 0,0.52681 -0.43191,0.95871 -0.96021,0.95871 -0.52718,0 -0.96208,-0.43191 -0.96208,-0.95871 0,-0.52569 0.4349,-0.96058 0.96208,-0.96058 0.5283,0 0.96021,0.4349 0.96021,0.96058" />
    <path
       style="fill:#ffffff;fill-rule:nonzero"
       inkscape:connector-curvature="0"
       id="path26-4-8-9"
       d="m 142.76,41.096 c 0,0.52382 -0.43377,0.95871 -0.95908,0.95871 -0.52681,0 -0.96171,-0.4349 -0.96171,-0.95871 0,-0.52531 0.4349,-0.95909 0.96171,-0.95909 0.52531,0 0.95908,0.43378 0.95908,0.95909" />
    <path
       style="fill:#ffffff;fill-rule:nonzero"
       inkscape:connector-curvature="0"
       id="path28-8-56-1"
       d="m 129.31,25.815 c 0,0.64823 -0.53391,1.1806 -1.1821,1.1806 -0.64786,0 -1.1821,-0.53241 -1.1821,-1.1806 0,-0.64786 0.53428,-1.1821 1.1821,-1.1821 0.64823,0 1.1821,0.53428 1.1821,1.1821" />
    <path
       style="fill:#ffffff;fill-rule:nonzero"
       inkscape:connector-curvature="0"
       id="path30-8-59-0"
       d="m 113.65,35.338 c 0,0.52681 -0.4334,0.96021 -0.9617,0.96021 -0.52681,0 -0.96021,-0.4334 -0.96021,-0.96021 0,-0.52569 0.4334,-0.96058 0.96021,-0.96058 0.5283,0 0.9617,0.4349 0.9617,0.96058" />
    <path
       style="fill:#ffffff;fill-rule:nonzero"
       inkscape:connector-curvature="0"
       id="path32-2-26-9"
       d="m 116.45,37.255 c 0,0.52868 -0.4334,0.96208 -0.9617,0.96208 -0.52681,0 -0.9617,-0.4334 -0.9617,-0.96208 0,-0.52531 0.43489,-0.95722 0.9617,-0.95722 0.5283,0 0.9617,0.43191 0.9617,0.95722" />
    <path
       style="fill:#ffffff;fill-rule:nonzero"
       inkscape:connector-curvature="0"
       id="path34-4-5-7"
       d="m 119.26,39.175 c 0,0.5283 -0.43341,0.9617 -0.96059,0.9617 -0.5268,0 -0.9617,-0.4334 -0.9617,-0.9617 0,-0.52382 0.4349,-0.95722 0.9617,-0.95722 0.52718,0 0.96059,0.4334 0.96059,0.95722" />
    <path
       style="fill:#ffffff;fill-rule:nonzero"
       inkscape:connector-curvature="0"
       id="path36-5-2-7"
       d="m 114.98,42.867 c 0,0.52681 -0.43639,0.96021 -0.96171,0.96021 -0.5283,0 -0.96207,-0.4334 -0.96207,-0.96021 0,-0.52531 0.43377,-0.95871 0.96207,-0.95871 0.52532,0 0.96171,0.4334 0.96171,0.95871" />
    <path
       style="fill:#ffffff;fill-rule:nonzero"
       inkscape:connector-curvature="0"
       id="path38-5-3-4"
       d="m 92.664,58.514 c 0,0.52681 -0.4349,0.95872 -0.9617,0.95872 -0.52681,0 -0.9617,-0.43191 -0.9617,-0.95872 0,-0.52681 0.4349,-0.96058 0.9617,-0.96058 0.52681,0 0.9617,0.43378 0.9617,0.96058" />
    <path
       style="fill:#ffffff;fill-rule:nonzero"
       inkscape:connector-curvature="0"
       id="path40-1-2-5"
       d="m 96.8,63.535 c 0,0.52569 -0.4349,0.95909 -0.9617,0.95909 -0.52681,0 -0.9617,-0.4334 -0.9617,-0.95909 0,-0.5283 0.4349,-0.96021 0.9617,-0.96021 0.52681,0 0.9617,0.43191 0.9617,0.96021" />
    <path
       style="fill:#ffffff;fill-rule:nonzero"
       inkscape:connector-curvature="0"
       id="path96-7-12-1"
       d="m 105.26,60.505 c 0,0.81001 -0.66691,1.4754 -1.4769,1.4754 -0.81301,0 -1.4784,-0.66542 -1.4784,-1.4754 0,-0.81001 0.66542,-1.4754 1.4784,-1.4754 0.81001,0 1.4769,0.66542 1.4769,1.4754" />
    <path
       style="fill:#ffffff;fill-rule:nonzero"
       inkscape:connector-curvature="0"
       id="path98-1-2-6"
       d="m 103.78,56.003 -0.44387,4.0587 -4.028,0.44386 4.0646,0.44087 0.44386,4.2089 0.442,-4.2089 3.9903,-0.51373 -4.028,-0.37101 -0.44087,-4.0587" />
    <path
       style="fill:#ffffff;fill-rule:nonzero"
       inkscape:connector-curvature="0"
       id="path100-1-88-7"
       d="m 160.23,24.783 c 0,0.81001 -0.66841,1.4769 -1.4784,1.4769 -0.81001,0 -1.4739,-0.66692 -1.4739,-1.4769 0,-0.81001 0.66393,-1.4769 1.4739,-1.4769 0.81001,0 1.4784,0.66692 1.4784,1.4769" />
    <path
       style="fill:#ffffff;fill-rule:nonzero"
       inkscape:connector-curvature="0"
       id="path102-5-87-8"
       d="m 158.75,20.277 -0.44088,4.0602 -4.028,0.44386 4.0646,0.44349 0.44087,4.2077 0.44499,-4.2077 3.9888,-0.51821 -4.028,-0.36914 -0.44237,-4.0602" />
  </g>
  <g
     id="g5348"
     transform="matrix(0.77005447,0,0,0.77005447,1261.2447,-142.48222)">
    <path
       sodipodi:nodetypes="cccccccccccccccccccscccccccccccccccccscsccccccccssscccssscccssssssccscsscccccccccccscccssscccscscccssccccscscccccssscccssscccccsccsssssssssssscsssccssccsccccssccccccccccsscscsccccsccsscccccsscccccccscscssccscscccscscccccssccsccccscscscccscsscccscsscscscssccscssscccccccccccccscsscsccccsscsccccccccscscsccscccsccccccscscscccssscccscccsscccsccscccsccccccccccsscscsssssssscscsscsscssccscscccssccccsccccsscsscscscccccscccccccccccccccccssscsssscssssssssssssccscccscccscccccscsccsccsccccscccc"
       inkscape:connector-curvature="0"
       id="path6710-0-5-7-2-0"
       d="m -1302.8664,239.97257 -12.327,0.0595 0,-2.00817 0,-2.0082 5.0265,0 5.0265,0 0,-5.34463 0,-5.34463 -5.984,0 -5.984,0 0,-1.8929 0,-1.89288 5.984,0 5.984,0 0,-4.5944 0,-4.59439 2.5139,0.10402 c 1.3827,0.0572 2.5928,0.17742 2.6893,0.26712 0.097,0.0897 -0.069,0.33391 -0.3655,0.54265 -0.5303,0.37209 -0.5397,0.45663 -0.4752,4.27164 l 0.065,3.89203 6.0438,0.0595 6.0439,0.0594 0,1.88908 0,1.88906 -6.1037,0 -6.1037,0 0,5.34463 0,5.34463 5.2659,0 5.2659,0 0,3.92199 c -11.0687,0.14932 -8.3068,0.0154 -12.5662,0.0347 z m -61.2727,0.1385 c -1.2446,-1.06815 -1.5276,-1.21318 -2.1544,-1.10403 -0.3967,0.0691 -2.9586,0.36589 -5.693,0.65946 -2.7803,0.2985 -5.1302,0.65625 -5.3314,0.81174 -0.4888,0.37737 -0.5573,0.27746 -1.1791,-1.71995 l -0.5415,-1.73993 1.5837,-0.15845 c 0.8709,-0.0872 2.3106,-0.22038 3.1992,-0.29607 l 1.6158,-0.13767 0,-0.7617 0,-0.7617 -2.7528,0 -2.7526,0 0,-1.4475 0,-1.4475 2.7526,0 c 2.5931,0 2.7528,-0.0258 2.7528,-0.44539 0,-0.4184 -0.1597,-0.44538 -2.633,-0.44538 l -2.633,0 0,-4.89925 0,-4.89924 2.633,0 c 2.4733,0 2.633,-0.027 2.633,-0.44539 0,-0.42253 -0.1597,-0.44538 -3.1117,-0.44538 l -3.1117,0 0,-1.4475 0,-1.44751 3.1117,0 c 2.8857,0 3.1117,-0.0304 3.1117,-0.41861 0,-0.39134 -0.1715,-0.41105 -2.633,-0.30249 -2.5216,0.11119 -2.633,0.0971 -2.633,-0.33284 0,-0.24689 -0.1565,-0.86162 -0.3478,-1.36606 -0.4173,-1.10041 -0.7244,-0.99533 3.9787,-1.36151 1.7994,-0.14011 4.4735,-0.47973 5.942,-0.75476 l 2.6702,-0.5 1.2795,1.34819 c 0.7038,0.7415 1.2378,1.38704 1.1868,1.43457 -0.051,0.0475 -1.3619,0.29913 -2.9132,0.55919 -2.7523,0.46145 -2.822,0.48758 -2.896,1.08359 l -0.076,0.61073 3.1276,0 3.1274,0 0,1.00212 0,1.00211 1.3166,0 1.3164,0 0,-3.45173 0,-3.45174 1.9749,0.003 c 2.2106,0.004 2.9687,0.25358 2.2738,0.74912 -0.3614,0.25769 -0.4188,0.70028 -0.4188,3.22481 l 0,2.92614 3.1398,0 3.1396,0 -0.161,5.4003 c -0.1932,6.47744 -0.5184,11.31413 -0.8602,12.79714 -0.5498,2.38433 -1.6587,3.15029 -4.6885,3.23828 l -1.8642,0.0541 -0.3874,-1.33616 c -0.2132,-0.73488 -0.4678,-1.56163 -0.5658,-1.83721 -0.1741,-0.48945 -0.1371,-0.50106 1.5947,-0.50106 1.6821,0 1.7876,-0.03 2.0597,-0.58562 0.3699,-0.7554 0.6728,-4.00377 0.8745,-9.37989 l 0.161,-4.28683 -1.17,0 -1.17,0 -0.2884,3.28472 c -0.5405,6.15917 -1.9078,10.03344 -4.7213,13.37887 -0.7388,0.87848 -1.3641,1.5927 -1.3894,1.58717 -0.026,-0.006 -0.6909,-0.5634 -1.479,-1.23975 z m -1.6189,-4.21246 2.6529,-0.15999 0.846,-1.72183 c 1.0091,-2.05376 1.7464,-5.24063 1.972,-8.52279 l 0.1644,-2.39394 -1.3398,0 -1.3398,0 -0.072,-1.28049 -0.072,-1.28048 -3.0519,-0.0624 c -2.9291,-0.0598 -3.0518,-0.0442 -3.0518,0.38971 0,0.42806 0.1462,0.45204 2.7527,0.45204 l 2.7526,0 0,4.89925 0,4.89924 -2.7526,0 c -2.5931,0 -2.7527,0.0258 -2.7527,0.44539 0,0.42063 0.1596,0.44537 2.8723,0.44537 l 2.8724,0 0,1.44751 0,1.44751 -2.8724,0 -2.8723,0 0,0.6919 c 0,0.48529 0.096,0.65785 0.3194,0.57789 0.1756,-0.0626 1.5132,-0.186 2.9721,-0.27395 z m -6.8818,-7.89932 c 0,-0.37116 -0.1597,-0.44539 -0.9575,-0.44539 -0.7979,0 -0.9574,0.0742 -0.9574,0.44539 0,0.37117 0.1595,0.4454 0.9574,0.4454 0.7978,0 0.9575,-0.0742 0.9575,-0.4454 z m 5.5052,0 c 0,-0.37116 -0.1595,-0.44539 -0.9574,-0.44539 -0.7979,0 -0.9574,0.0742 -0.9574,0.44539 0,0.37117 0.1595,0.4454 0.9574,0.4454 0.7979,0 0.9574,-0.0742 0.9574,-0.4454 z m -5.5052,-3.56308 c 0,-0.37116 -0.1597,-0.44539 -0.9575,-0.44539 -0.7979,0 -0.9574,0.0742 -0.9574,0.44539 0,0.37116 0.1595,0.44538 0.9574,0.44538 0.7978,0 0.9575,-0.0742 0.9575,-0.44538 z m 5.5052,0 c 0,-0.37116 -0.1595,-0.44539 -0.9574,-0.44539 -0.7979,0 -0.9574,0.0742 -0.9574,0.44539 0,0.37116 0.1595,0.44538 0.9574,0.44538 0.7979,0 0.9574,-0.0742 0.9574,-0.44538 z m -38.8316,11.6357 -0.064,-5.06627 -0.6702,1.6702 c -0.3686,0.91861 -0.8625,2.00734 -1.0974,2.41939 l -0.4271,0.74917 -0.8636,-1.69194 -0.8637,-1.69195 0.9255,-1.8409 c 0.981,-1.95181 2.2466,-5.64794 2.5249,-7.37394 l 0.167,-1.03639 -1.4633,0 -1.4633,0 0,-1.78154 0,-1.78154 1.6755,0 1.6755,0 0,-3.25689 0,-3.25688 0.748,0.13918 c 0.4115,0.0765 1.3808,0.13919 2.1543,0.13919 1.0423,0 1.4062,0.0803 1.4062,0.31021 0,0.17062 -0.1616,0.36789 -0.3591,0.43838 -0.2916,0.10412 -0.3591,0.63132 -0.3591,2.8075 l 0,2.67931 1.1065,0 c 0.8546,0 1.0514,-0.0634 0.8646,-0.27837 -0.2897,-0.33335 1.1017,-2.3731 1.527,-2.23864 0.2291,0.0725 0.5464,-0.58054 1.5592,-3.20853 l 0.1897,-0.49227 1.7044,0.70038 c 1.6354,0.67205 1.6848,0.71455 1.221,1.049 -0.6079,0.43847 -2.495,3.74153 -2.3028,4.03086 0.2787,0.4196 0.5135,0.19868 1.1916,-1.12129 0.3775,-0.73488 0.7248,-1.33615 0.7716,-1.33615 0.047,0 0.5118,0.20247 1.0331,0.4499 l 0.9479,0.44993 0,-2.17579 -10e-5,-2.17577 2.0945,0.0787 c 1.152,0.0433 2.1387,0.11776 2.1928,0.16565 0.054,0.0479 -0.081,0.2709 -0.2994,0.49565 -0.2969,0.30533 -0.3955,0.82632 -0.3898,2.06127 0.01,1.34508 0.062,1.58685 0.2992,1.29907 0.1604,-0.19445 0.4136,-0.3153 0.5627,-0.26852 0.1545,0.0485 0.5572,-0.66158 0.9363,-1.65064 0.3659,-0.95464 0.7286,-1.80364 0.8061,-1.88664 0.077,-0.083 0.8947,0.17998 1.8163,0.58444 1.2661,0.55567 1.5749,0.77462 1.2635,0.89605 -0.6349,0.24761 -2.691,3.88942 -2.3665,4.19139 0.331,0.308 0.8103,-0.24117 1.3684,-1.56816 0.2189,-0.52055 0.4853,-0.94644 0.592,-0.94644 0.1067,0 0.8485,0.35681 1.6482,0.79292 1.3176,0.71842 1.6729,1.21131 0.8732,1.21131 -0.1667,0 -0.8537,0.85058 -1.5271,1.89019 l -1.224,1.89018 0.8523,-0.33133 c 0.4689,-0.18225 0.9775,-0.33134 1.1305,-0.33134 0.3304,0 1.5076,2.7177 1.704,3.934 0.1372,0.84946 0.1315,0.85644 -1.0793,1.34425 l -1.2172,0.49035 -0.1413,-0.65738 c -0.1039,-0.48217 -0.2769,-0.65645 -0.65,-0.65396 -1.1021,0.008 -1.1438,0.3399 -0.1373,1.09246 0.5595,0.41838 0.9248,0.85894 0.8543,1.03014 -0.088,0.21546 0.1578,0.31816 0.8813,0.36707 l 1.0047,0.0678 0.071,1.50317 0.071,1.50318 -1.7462,0.018 -1.7463,0.018 0.9574,0.42118 c 0.5266,0.23165 1.0652,0.46667 1.1967,0.52225 0.1317,0.0556 0.01,0.28385 -0.2732,0.50724 -0.282,0.2234 -0.6876,0.72983 -0.9013,1.12542 -0.2136,0.39559 -0.8879,1.28961 -1.4982,1.98675 l -1.1097,1.26752 0.6479,0.51852 c 0.6718,0.53763 1.6774,0.68788 1.9416,0.29013 0.083,-0.12563 0.2127,-0.777 0.2869,-1.44751 0.075,-0.6705 0.1838,-1.21908 0.2433,-1.21908 0.059,0 0.5484,0.35075 1.0867,0.77942 0.5383,0.42869 1.0817,0.77943 1.2075,0.77943 0.3371,0 0,1.88247 -0.5317,3.01071 -0.5618,1.18157 -1.4729,1.66584 -3.1342,1.66584 -1.4148,0 -2.4046,-0.40709 -3.6185,-1.48826 l -0.8656,-0.77109 -1.3009,0.77411 c -1.0509,0.62558 -2.8984,1.48524 -3.1915,1.48524 -0.119,0 -2.0764,-2.48423 -1.9959,-2.53305 0.045,-0.0272 0.8893,-0.41696 1.8766,-0.86627 0.9875,-0.44931 2.0951,-1.04576 2.4615,-1.32545 l 0.6663,-0.50851 -0.688,-2.44962 -0.688,-2.44963 -1.5634,-0.0652 c -1.4019,-0.0585 -1.5764,-0.0185 -1.6906,0.38789 -0.096,0.34098 0.1186,0.62838 0.867,1.16144 0.5468,0.38957 1.3942,1.05847 1.883,1.48642 l 0.8887,0.77811 -0.8704,1.13205 c -0.4787,0.6226 -0.96,1.22783 -1.0697,1.34497 -0.1192,0.12731 -0.6692,-0.21769 -1.368,-0.85798 l -1.1686,-1.0709 -0.2945,0.85797 c -0.4817,1.40316 -1.5724,3.0192 -2.7589,4.08699 l -1.1134,1.00212 -0.3968,-0.55663 c -0.2181,-0.30612 -0.7301,-0.89895 -1.1377,-1.31739 l -0.7411,-0.76079 0.8102,-0.66169 c 1.1497,-0.93923 1.9144,-2.26401 2.4669,-4.27418 0.7149,-2.60033 0.6823,-2.78453 -0.4925,-2.78453 -0.5869,0 -0.913,-0.0882 -0.8237,-0.2227 0.081,-0.12248 0.06,-0.22206 -0.046,-0.22129 -0.1064,0 -0.3966,0.32647 -0.6446,0.72376 l -0.451,0.72234 -0.6261,-1.55885 -0.6262,-1.55885 -0.064,6.17973 -0.063,6.17973 -1.7868,0 -1.7871,0 -0.064,-5.06627 z m 19.7794,-4.06414 0.6514,-1.11347 -0.9325,0 c -0.5128,0 -0.9888,0.0524 -1.0576,0.1164 -0.1669,0.15528 0.3207,2.11053 0.5264,2.11053 0.088,0 0.454,-0.50106 0.8123,-1.11346 z m -5.6019,-5.01059 c 0,-0.90316 0.065,-0.87516 -1.0402,-0.44539 -1.1413,0.4437 -1.3533,0.42236 -1.3533,-0.13613 0,-0.4083 -0.1019,-0.45326 -0.778,-0.34182 -0.4278,0.0706 -1.3703,0.19495 -2.0945,0.27633 -0.7239,0.0813 -1.502,0.2985 -1.7291,0.48253 -0.4665,0.37815 -0.5273,0.28355 -1.2283,-1.91254 l -0.3669,-1.14973 0.5824,-0.13602 c 0.3662,-0.0855 0.8942,-0.59965 1.422,-1.38453 l 0.8393,-1.24854 -0.8966,-0.85577 -0.8966,-0.85579 -0.071,1.45975 -0.071,1.45975 -1.4253,0 -1.4252,0 0,0.70418 c 0,0.59548 1.5288,3.44015 2.4641,4.58478 0.1657,0.20274 1.2923,0.27836 4.1476,0.27836 l 3.9201,0 z m 5.0297,0.34397 -0.5953,-0.42555 0.5953,-0.59928 0.5953,-0.59927 -0.5984,0.16404 c -0.3291,0.0902 -0.7007,0.25297 -0.8258,0.36169 -0.3452,0.30004 -0.5637,0.23873 -0.6847,-0.19205 -0.074,-0.26231 -0.1175,-0.20771 -0.1339,0.16702 -0.055,1.25026 0.194,1.55921 1.2534,1.55391 l 0.9894,-0.005 -0.5953,-0.42555 z m -8.145,-4.18543 c 0,-0.0918 -0.099,-0.30582 -0.2137,-0.47546 -0.1677,-0.24644 -0.2649,-0.21288 -0.4834,0.16701 -0.2376,0.41309 -0.2097,0.47548 0.2136,0.47548 0.2679,0 0.4855,-0.0751 0.4835,-0.16703 z m 7.3878,-1.11228 0.7388,-1.05661 -1.0096,-0.95892 -1.0097,-0.95893 -0.075,1.29179 c -0.083,1.44682 0.1129,2.73929 0.4159,2.73929 0.1101,0 0.5327,-0.47548 0.9389,-1.05662 z m 3.8621,0.55555 c 0,-0.1531 -0.092,-0.40837 -0.2006,-0.56727 -0.1615,-0.23675 -0.2405,-0.23675 -0.4378,0 -0.5875,0.70481 -0.5825,0.84563 0.03,0.84563 0.3369,0 0.6108,-0.12525 0.6088,-0.27836 z m -8.7317,-2.56963 -0.1651,-1.63955 -1.0552,1.57724 c -0.5801,0.86748 -1.0549,1.62144 -1.0549,1.67546 0,0.054 0.3396,-0.0118 0.7547,-0.14654 0.6443,-0.20899 0.8017,-0.18479 1.0772,0.16549 0.1772,0.22563 0.337,0.56648 0.355,0.7574 0.019,0.19094 0.082,0.1003 0.1429,-0.20141 0.06,-0.3017 0.036,-1.28634 -0.054,-2.18809 z m 50.6234,18.65918 0,-2.44962 -3.2314,0 -3.2314,0 0,-1.78153 0,-1.78155 3.2314,0 3.2314,0 0,-0.77941 0,-0.77943 -2.633,0 -2.633,0 0,-5.79002 0,-5.79002 5.6848,-0.01 5.6849,-0.01 -0.9173,-0.4502 c -0.5083,-0.24957 -0.862,-0.56773 -0.7936,-0.71391 0.921,-1.96579 2.3054,-5.22299 2.3069,-5.42818 0,-0.54557 0.5183,-0.50988 2.6555,0.1845 1.9618,0.63737 2.1488,0.74464 1.7599,1.00936 -0.2395,0.1629 -0.5226,0.29618 -0.629,0.29618 -0.1065,0 -0.1938,0.12593 -0.1938,0.27986 0,0.15392 -0.5922,1.25819 -1.3164,2.45396 -0.724,1.19575 -1.3165,2.22225 -1.3165,2.28111 0,0.0589 0.4308,0.10701 0.9576,0.10701 0.9502,0 0.9573,0.007 0.9573,0.85219 0,0.83041 0.02,0.85005 0.778,0.76736 1.9076,-0.20806 1.7444,0.24071 1.6578,-4.56025 l -0.077,-4.29682 2.3514,0.14471 c 1.2933,0.0796 2.375,0.15474 2.4038,0.16701 0.2111,0.09 -0.2983,0.69039 -0.5858,0.69039 -0.3124,0 -0.3487,0.47554 -0.2631,3.44295 0.054,1.89359 0.163,3.50206 0.2407,3.57437 0.078,0.0723 1.415,-0.024 2.9716,-0.21389 3.9681,-0.48416 3.5954,-0.61704 3.7871,1.35038 0.09,0.93264 0.1228,1.73503 0.071,1.7831 -0.052,0.0481 -1.323,0.23954 -2.825,0.42548 -4.2399,0.52489 -3.8813,0.33502 -3.6842,1.95086 0.092,0.7603 0.2413,1.78322 0.3302,2.27314 l 0.1614,0.89077 0.911,-2.11559 c 0.5012,-1.16357 0.9369,-2.14041 0.9684,-2.17076 0.048,-0.0456 2.6789,0.73967 3.9574,1.18096 0.2698,0.0932 0.2095,0.23113 -0.2664,0.61074 -0.3383,0.26972 -0.756,0.84115 -0.9284,1.26984 -0.3688,0.91669 -2.3969,4.66946 -3.1291,5.79001 -0.4455,0.68162 -0.4763,0.89122 -0.2448,1.67019 0.3058,1.02881 1.1164,2.33828 1.4477,2.33828 0.3567,0 0.5463,-0.80913 0.7078,-3.0202 l 0.1496,-2.0488 1.5191,1.30151 1.5192,1.3015 -0.2842,1.6227 c -0.3836,2.19058 -1.1993,3.83487 -2.1228,4.27919 -0.9251,0.44508 -2.4842,0.44869 -3.4006,0.008 -0.7662,-0.36868 -1.887,-1.67517 -2.3725,-2.76587 l -0.3011,-0.67641 -1.4123,1.21641 c -0.7767,0.66904 -1.8779,1.51461 -2.4474,1.87902 l -1.035,0.66258 -1.2488,-1.45773 c -0.687,-0.80176 -1.2152,-1.48181 -1.1742,-1.51123 0.041,-0.0294 0.7208,-0.46094 1.5107,-0.9589 0.7899,-0.49798 2.119,-1.55241 2.9535,-2.34317 l 1.5175,-1.43777 -0.4862,-2.86891 c -0.2673,-1.57791 -0.5595,-3.55102 -0.6491,-4.3847 l -0.163,-1.51579 -1.2738,0.14804 -1.2737,0.14806 -0.089,-1.19322 c -0.049,-0.65628 -0.1087,0.73266 -0.1331,3.08652 l -0.045,4.27978 -2.8125,0.0627 -2.8124,0.0627 -0.075,0.72375 -0.076,0.72376 3.2466,0 3.2465,0 0,1.78155 0,1.78153 -3.2314,0 -3.2313,0 0,2.44962 0,2.44963 -1.9149,0 -1.9149,0 0,-2.44963 z m 0.2393,-11.25879 0,-0.79222 -1.0173,0.0684 c -0.9548,0.0643 -1.0218,0.1129 -1.0923,0.79223 -0.075,0.72101 -0.071,0.72376 1.0173,0.72376 1.0921,0 1.0923,-1.2e-4 1.0923,-0.79224 z m 5.6999,0.0684 c -0.073,-0.69861 -0.1123,-0.72375 -1.1488,-0.72375 -0.8456,0 -1.0916,0.0856 -1.1571,0.40272 -0.1648,0.79604 0.1402,1.04479 1.2812,1.04479 1.0965,0 1.0995,-0.002 1.0247,-0.72376 z m -5.6999,-4.17549 c 0,-0.64334 -0.039,-0.66808 -1.0772,-0.66808 -1.0371,0 -1.077,0.0248 -1.077,0.66808 0,0.64334 0.04,0.66807 1.077,0.66807 1.0374,0 1.0772,-0.0247 1.0772,-0.66807 z m 5.7446,0 c 0,-0.65322 -0.026,-0.66808 -1.1968,-0.66808 -1.0941,0 -1.1969,0.0445 -1.1969,0.51961 0,0.7169 0.1656,0.81654 1.3565,0.81654 0.9929,0 1.0372,-0.0285 1.0372,-0.66807 z m 13.0533,-4.3588 c -0.202,-0.44963 -0.3672,-0.87062 -0.3672,-0.93548 0,-0.0649 -0.4846,-0.89975 -1.0771,-1.8553 -0.5924,-0.95557 -1.0763,-1.81721 -1.0752,-1.91477 0,-0.0976 0.6555,-0.49437 1.4545,-0.88175 l 1.4525,-0.70434 1.0363,1.49041 c 1.3601,1.95614 2.1406,3.47259 1.9803,3.84745 -0.071,0.16611 -0.7834,0.6326 -1.5831,1.03668 l -1.4539,0.73466 z m -23.67,0.072 c -0.038,-0.15311 -0.4197,-1.23038 -0.8473,-2.39395 -0.4275,-1.16358 -0.7966,-2.24967 -0.8202,-2.41354 -0.025,-0.17789 0.5641,-0.50447 1.4632,-0.81042 l 1.5059,-0.51245 0.6791,1.25579 c 0.9221,1.70535 1.6023,3.77328 1.3204,4.01491 -0.2049,0.17569 -2.8373,1.13802 -3.113,1.13802 -0.064,0 -0.1496,-0.12527 -0.1881,-0.27836 z m 4.9832,-1.01412 c -0.072,-0.33024 -0.3847,-1.55241 -0.6948,-2.71599 -0.3102,-1.16358 -0.5237,-2.17723 -0.4747,-2.25256 0.1584,-0.24278 3.0269,-0.68217 3.2129,-0.49211 0.3002,0.30663 1.1825,3.01128 1.3443,4.12035 l 0.1519,1.04168 -1.0475,0.2497 c -0.5761,0.13735 -1.343,0.33964 -1.7042,0.44953 -0.5935,0.18044 -0.6696,0.14167 -0.7879,-0.4006 z"
       style="fill:#c7000b;fill-opacity:1" />
    <path
       sodipodi:nodetypes="ccscsccscscscccscscccscccccccscsscscscccccccccccsssscccsccsccccscccccssscssssccccscccscsscscccsssscccccsssssssscscccccccssssscccccssssccscscscsssssssssssscccccccscccccccccccccccccccccccccccccccccccccscscccccc"
       inkscape:connector-curvature="0"
       id="path2996"
       d="m -1388.7225,346.16191 c -2.0297,-3.04584 -2.6062,-4.98545 -2.3175,-7.79711 0.1792,-1.74667 4.6229,-13.2578 17.7506,-45.98327 l 17.5114,-43.65335 12.6014,-0.11007 c 8.0402,-0.0702 12.5109,0.0355 12.3516,0.29212 -0.5409,0.87136 -38.2078,93.30383 -38.0756,93.4354 0.078,0.0773 10.4059,0.092 22.9519,0.0329 l 22.811,-0.1075 -9.8334,-21.34453 c -5.4083,-11.7395 -9.772,-21.39523 -9.697,-21.45717 0.075,-0.062 5.5985,-0.23274 12.2748,-0.37953 l 12.1385,-0.26688 10.4691,24.32248 10.7216,24.5635 -44.8064,0 c -32.4288,0 -45.1015,-0.11371 -45.2132,0.2199 -0.084,0.25352 -0.8223,-0.54159 -1.6388,-1.76692 z m -226.6584,0.99415 c 0,-0.17149 9.6692,-16.49472 21.4778,-36.27384 l 21.4698,-35.96205 -10.8109,0.23126 c -4.9235,-0.0616 -7.262,0.16703 -7.2508,0 1.4317,-2.91469 3.0652,-5.02191 5.0148,-7.71468 l 8.811,-0.11211 8.811,-0.1121 5.7549,-9.61444 5.3331,-8.77451 c 6.704,-0.46769 10.7847,0.0881 20.2069,-0.11387 0.076,0.075 -1.9355,4.26019 -4.4684,9.30041 l -4.6053,9.16404 12.6183,0.13129 c 11.7501,0.12225 12.7477,0.19089 14.4973,0.99737 4.438,2.04571 6.2282,6.28625 4.9876,11.81417 -0.2308,1.02898 -6.4537,16.60387 -13.8286,34.61087 l -13.4089,32.74001 -12.4901,0 c -6.8697,0 -12.4042,-0.14032 -12.2989,-0.31182 0.1904,-0.3103 29.2701,-69.72505 29.9568,-71.50832 l 0.3602,-0.93543 -7.0124,0 -7.0125,0 -18.1067,36.37778 -18.0622,36.11374 -15.0427,0 c -8.2244,0 -15.0393,0.17153 -15.035,0 z m 85.7051,-11.9527 5.0091,-12.2645 18.5626,0 c 21.4972,0 19.9329,0.27823 24.5759,-4.37123 5.9106,-5.91897 14.3944,-20.40116 23.0118,-39.28212 1.8265,-4.00156 3.7624,-8.3513 4.3022,-9.66609 l 0.9814,-2.39055 5.1362,0 5.1362,0 -0.791,1.9748 c -28.6787,65.39454 -24.3658,69.42408 -36.2244,74.39861 -3.1264,1.63361 -6.8654,2.88957 -10.2116,3.43023 -1.5704,0.25371 -11.206,0.43037 -23.5766,0.43222 l -20.921,0.003 5.0092,-12.26452 z m 105.0136,12.50554 c -0.526,10e-6 16.3946,-41.36654 16.6742,-42.33531 0.1962,-0.68031 -0.5336,-0.72757 -11.237,-0.72757 l -11.447,0 -0.5603,1.55906 c -0.308,0.85747 -1.4888,3.94438 -2.6238,6.85981 l -2.0637,5.30075 -11.656,0 c -6.4109,0 -11.6561,-0.0704 -11.6561,-0.1564 0,-0.086 4.7803,-11.54503 10.6228,-25.46445 l 10.6229,-25.30804 26.0155,-0.11491 c 15.3077,-0.0676 27.4287,0.0539 29.4487,0.29533 4.1813,0.49966 7.2235,1.74167 8.8871,3.62826 2.4808,2.81339 2.8227,1.72338 -12.8422,40.93843 l -14.3442,35.52504 -11.6498,0 c -6.6158,0.002 -12.184,0.19167 -12.0649,0 z m 24.2487,-62.3202 c 2.0962,-5.561 3.8112,-10.23815 3.8112,-10.39366 0,-0.1555 -5.0583,-0.28273 -11.2408,-0.28273 l -11.2409,0 -1.5621,4.05351 c -0.8592,2.22945 -2.5647,6.64029 -3.7903,9.80188 -1.2254,3.1616 -2.2281,6.01465 -2.2281,6.34014 0,0.49718 1.7934,0.59177 11.2198,0.59177 l 11.2199,0 z m 137.6301,61.6268 c -7.8074,-0.79887 -13.8701,-2.87313 -19.5158,-6.67706 -6.88,-4.63552 -10.2097,-10.41453 -11.5825,-20.10194 -0.2591,-1.82928 -0.5748,-3.79368 -0.7014,-4.36533 -0.1266,-0.57166 -0.3632,-14.41599 -0.5258,-30.76521 -0.333,-33.47769 -0.2745,-32.85658 -3.3718,-35.79698 -1.8684,-1.77373 -4.1713,-2.45167 -8.3284,-2.45167 l -2.9466,0 0,-1.24724 0,-1.24724 21.7116,0 21.7117,0 0,1.19318 c 0,1.10813 -0.1358,1.2084 -1.9049,1.40695 -2.4062,0.27007 -3.7368,1.47925 -4.6604,4.23528 -0.6266,1.8695 -0.7217,5.17449 -0.8564,29.75025 -0.1002,18.24432 0.01,29.27317 0.3117,32.4282 1.8369,18.959 10.3091,27.17401 26.5252,25.72034 8.6769,-0.77783 13.2115,-2.83795 17.7627,-8.06973 3.3626,-3.86551 4.899,-8.4163 5.8031,-17.18894 0.5622,-5.45625 0.5902,-55.03525 0.033,-58.42421 -1.0071,-6.12357 -3.5156,-8.19054 -10.2985,-8.48593 l -3.9057,-0.17009 0,-1.19765 0,-1.19765 17.9539,0 17.9539,0 0,1.24724 0,1.24724 -2.9787,0 c -3.978,0 -6.0364,0.68107 -8.1329,2.69098 -3.2854,3.14987 -3.2052,2.34944 -3.5265,35.14192 -0.2999,30.60438 -0.4661,33.31319 -2.4981,40.69279 -2.2507,8.17403 -7.3143,13.99613 -15.64,17.9826 -7.1911,3.44312 -17.4828,4.76616 -28.3922,3.6499 z m 98.5374,-0.19952 c -20.7539,-3.15557 -36.5713,-18.00198 -40.9415,-38.42824 -1.6522,-7.72246 -1.1106,-19.06306 1.2836,-26.87899 4.4299,-14.46142 15.8233,-26.77523 30.2635,-32.70865 7.6026,-3.12388 14.3254,-4.21355 24.1435,-3.9134 7.6802,0.23479 11.8718,1.06982 18.2359,3.63282 7.0629,2.84436 7.587,2.98001 9.0821,2.35001 1.7886,-0.75371 2.6995,-1.82677 3.6314,-4.27786 l 0.7683,-2.02096 2.1317,-0.12567 c 1.5354,-0.0906 2.1329,0.0258 2.1364,0.41575 0,0.29777 0.564,7.9313 1.2478,16.96339 0.6837,9.03208 1.2453,16.65582 1.2479,16.94164 0,0.34486 -0.6755,0.51969 -2.017,0.51969 l -2.0217,0 -1.1664,-3.01416 c -2.8929,-7.47603 -6.8546,-13.43199 -11.456,-17.22316 -3.1375,-2.58487 -8.2645,-5.23432 -11.9351,-6.16765 -9.133,-2.3222 -20.5404,-1.25223 -27.9427,2.62094 -9.0799,4.75093 -15.739,16.04648 -18.0657,30.64384 -0.9429,5.91543 -0.9072,17.50023 0.07,22.65817 2.4301,12.82938 8.747,21.60259 19.1437,26.58806 10.8225,5.18966 25.8459,5.41779 35.5631,0.54004 4.8425,-2.43084 9.909,-6.66352 15.0437,-12.56797 3.5767,-4.11277 3.6194,-4.14502 4.721,-3.56646 3.0355,1.59406 3.0247,1.45342 0.4072,5.29021 -8.153,11.9513 -19.813,19.55485 -33.3357,21.7385 -4.8724,0.7868 -15.0316,0.78184 -20.2388,-0.01 z m -337.1949,-47.98159 -13.1906,-0.21668 5.8838,-15.688 5.8837,-15.68801 10.0208,0.003 c 5.5115,0.002 10.7537,0.17281 11.6496,0.37971 2.338,0.54005 3.3826,1.73935 3.3766,3.87692 -0.01,2.1402 -9.2542,27.78993 -9.9672,27.64436 -0.2563,-0.0524 -6.4019,-0.19264 -13.6567,-0.31181 z m -29.1889,-36.33454 c 0,-0.0857 1.5732,-3.78065 3.4959,-8.21099 l 3.496,-8.05516 4.4063,-0.11769 4.4063,-0.11769 -3.6226,8.32767 -3.6225,8.32767 -4.2797,8.4e-4 c -2.3538,4.1e-4 -4.2797,-0.0691 -4.2797,-0.15483 z m 13.3851,-0.15599 c 0.013,-0.17149 1.5837,-3.86644 3.49,-8.21099 l 3.4662,-7.89917 4.3967,-0.11753 4.3968,-0.11754 -3.6071,8.32259 -3.6073,8.32259 -4.2797,0.006 c -2.3539,0.003 -4.2689,-0.13438 -4.2556,-0.30588 z m 122.3126,0.1313 c 0,-0.0993 1.5733,-3.79421 3.496,-8.21098 l 3.4959,-8.03048 4.3972,-0.11759 4.3971,-0.11761 -3.6134,8.32723 -3.6134,8.32722 -4.2797,9.9e-4 c -2.3538,8.4e-4 -4.2797,-0.0798 -4.2797,-0.17914 z m 13.3853,-0.1313 c 0.013,-0.17149 1.5788,-3.86644 3.4787,-8.21099 l 3.4545,-7.89917 4.2456,-0.11847 c 2.3351,-0.0652 4.2477,0.0284 4.2502,0.20786 0,0.1795 -1.5477,3.92417 -3.4448,8.3215 l -3.4491,7.99515 -4.2797,0.008 c -2.3538,0.004 -4.2687,-0.13234 -4.2554,-0.30384 z"
       style="fill:#c7000b;fill-opacity:1" />
    <g
       transform="matrix(0.98780815,0,0,1,-11.913127,-1.1190997)"
       id="g5290">
      <path
         style="fill:#c7000b;fill-opacity:1;stroke:#ffffff;stroke-width:1.5;stroke-miterlimit:4;stroke-dasharray:none"
         d="m -1118.2387,315.60798 2.8052,-5.33167 10.3954,0 c 12.0388,0 11.1628,0.12095 13.763,-1.90028 3.31,-2.57311 8.0611,-8.86886 12.887,-17.07686 1.0229,-1.73957 2.107,-3.6305 2.4093,-4.20207 l 0.5496,-1.03923 2.8764,0 2.8763,0 -0.4429,0.85849 c -0.2438,0.47217 -3.6077,6.99287 -7.4757,14.49046 -3.7418,6.13251 -4.5852,14.32673 -12.8107,17.85236 -1.7508,0.71017 -3.8447,1.25617 -5.7187,1.49121 -0.8794,0.11029 -6.2755,0.18709 -13.2033,0.18789 l -11.7161,10e-4 2.8052,-5.33168 z m 19.8121,-15.81045 -7.387,-0.0942 3.295,-6.81994 3.295,-6.81994 5.6118,0.001 c 3.0866,5.5e-4 6.0223,0.0751 6.524,0.16507 1.3094,0.23477 1.8944,0.75613 1.891,1.68539 -0.01,0.93039 -5.1825,12.08093 -5.5818,12.01765 -0.1436,-0.0228 -3.5852,-0.0838 -7.648,-0.13555 z"
         id="path2996-8"
         inkscape:connector-curvature="0"
         sodipodi:nodetypes="csssscccsccssccccccccsccccc" />
      <path
         id="rect3138"
         d="m -1071.2861,338.19003 33.5875,0 0,11.87198 -33.5875,0 z"
         style="color:#000000;fill:#c7000b;fill-opacity:1;fill-rule:nonzero;stroke:#ffffff;stroke-width:1.56839371;stroke-miterlimit:4;marker:none;visibility:visible;display:inline;overflow:visible;enable-background:accumulate"
         transform="matrix(1,0,-0.40416386,0.9146866,0,0)"
         inkscape:connector-curvature="0" />
      <path
         inkscape:connector-curvature="0"
         style="color:#000000;fill:#c7000b;fill-opacity:1;fill-rule:nonzero;stroke:#ffffff;stroke-width:1.5;stroke-miterlimit:4;stroke-dasharray:none;marker:none;visibility:visible;display:inline;overflow:visible;enable-background:accumulate"
         d="m -1222.105,284.54403 c -3.2691,0.0419 -6.8309,0.21849 -10.2188,0.15625 l -1.5,3.8125 c 18.489,0.20519 14.0989,-2.46364 1.5626,20.8125 l -15.4688,0 -4.7812,10.875 33.5624,0 4.8126,-10.875 -4.3438,0 5.3438,-9.84375 c 8.0113,-13.81044 0.8384,-15.06321 -8.9688,-14.9375 z"
         id="rect3138-5" />
      <path
         id="rect3138-3"
         d="m -1039.48,328.25861 24.7488,0 0,6.43972 -24.7488,0 z"
         style="color:#000000;fill:#c7000b;fill-opacity:1;fill-rule:nonzero;stroke:#ffffff;stroke-width:1.59687197;stroke-miterlimit:4;marker:none;visibility:visible;display:inline;overflow:visible;enable-background:accumulate"
         transform="matrix(1,0,-0.47058829,0.88235291,0,0)"
         inkscape:connector-curvature="0" />
      <path
         style="fill:#c7000b;fill-opacity:1;stroke:#ffffff;stroke-width:1.31400001;stroke-miterlimit:4;stroke-dasharray:none"
         d="m -1173.4717,320.36194 c 0,-0.0154 1.2765,-2.68508 2.8366,-5.93268 l 2.8365,-5.90471 11.0387,-0.0539 c 12.6319,-0.0616 11.3896,0.0379 12.5135,-1.00267 1.526,-1.41275 2.8283,-3.69049 6.3188,-11.05095 0.8085,-1.70474 1.9027,-3.93772 2.4317,-4.96217 0.5291,-1.02446 0.9619,-1.90691 0.9619,-1.96101 0,-0.0658 -3.6618,-0.1065 -11.0821,-0.12299 l -11.0821,-0.0246 1.275,-2.34676 1.2751,-2.34677 14.5048,-0.002 c 7.9776,-0.001 14.5048,0.0253 14.5048,0.0587 0,0.0335 -0.278,0.56739 -0.6178,1.18654 -0.9381,1.70947 -1.3159,2.48633 -4.3396,8.92298 -1.5391,3.27629 -3.2704,6.82863 -3.8474,7.89409 -0.5769,1.06546 -1.5185,2.85253 -2.0924,3.97127 -3.2356,6.30692 -4.594,8.53182 -6.1982,10.15188 -0.7505,0.75788 -1.451,1.2963 -2.1354,1.64124 -0.7059,0.3558 -2.2553,0.91843 -3.2716,1.18797 -1.999,0.53022 -2.1323,0.54137 -7.5243,0.62957 -4.7883,0.0783 -18.3065,0.12785 -18.3065,0.067 z"
         id="path4670"
         inkscape:connector-curvature="0"
         sodipodi:nodetypes="sscsssssscccssssssscsss" />
      <path
         id="rect4672"
         d="m -961.3277,340.72745 15.4308,0 0,9.74203 -15.4308,0 z"
         style="color:#000000;fill:#c7000b;fill-opacity:1;fill-rule:nonzero;stroke:#ffffff;stroke-width:1.39333224;stroke-miterlimit:4;marker:none;visibility:visible;display:inline;overflow:visible;enable-background:accumulate"
         transform="matrix(1,0,-0.48736617,0.87319769,0,0)"
         inkscape:connector-curvature="0" />
    </g>
    <g
       id="text5275"
       style="font-size:19.20657349px;font-style:normal;font-variant:normal;font-weight:normal;font-stretch:normal;text-align:start;line-height:125%;letter-spacing:0px;word-spacing:0px;writing-mode:lr-tb;text-anchor:start;fill:#c7000b;fill-opacity:1;stroke:#c7000b;stroke-width:2.27799988;stroke-miterlimit:4;stroke-opacity:1;font-family:Square721 BT;-inkscape-font-specification:Square721 BT"
       transform="scale(1.372842,0.72841596)">
      <path
         id="path5299"
         style="fill:#c7000b;stroke:#c7000b"
         d="m -1140.262,516.97205 0,-13.96416 2.5415,0 4.7829,12.44489 4.736,-12.44489 2.5602,0 0,13.96416 -1.538,0 0,-12.66059 -4.8204,12.66059 -1.9038,0 -4.8204,-12.66059 0,12.66059 z"
         inkscape:connector-curvature="0" />
      <path
         id="path5301"
         style="fill:#c7000b;stroke:#c7000b"
         d="m -1116.3569,504.29271 -0.8628,0 c -0.9816,10e-6 -1.6756,0.0532 -2.082,0.15943 -0.4064,0.10629 -0.7565,0.28448 -1.0504,0.53455 -0.2751,0.2376 -0.4689,0.55802 -0.5814,0.96127 -0.1125,0.40327 -0.1688,1.0957 -0.1688,2.07727 l 0,3.95761 c 0,0.97534 0.056,1.66151 0.1688,2.05852 0.1125,0.39701 0.3063,0.7143 0.5814,0.95188 0.2939,0.25009 0.644,0.42828 1.0504,0.53456 0.4064,0.10629 1.1004,0.15943 2.082,0.15943 l 0.8628,0 c 0.9815,0 1.6787,-0.0531 2.0913,-0.15943 0.4126,-0.10628 0.7659,-0.28447 1.0597,-0.53456 0.2689,-0.23132 0.458,-0.5408 0.5674,-0.92844 0.1094,-0.38763 0.1641,-1.08162 0.1641,-2.08196 l 0,-3.97636 c 0,-0.98158 -0.056,-1.674 -0.1688,-2.07728 -0.1125,-0.40325 -0.3063,-0.72367 -0.5814,-0.96126 -0.2876,-0.24382 -0.6346,-0.41732 -1.041,-0.52049 -0.4064,-0.10315 -1.1035,-0.15473 -2.0913,-0.15474 z m -6.3397,3.32926 c 0,-1.78185 0.3689,-3.02446 1.1066,-3.72784 0.7378,-0.70335 2.0476,-1.05503 3.9295,-1.05505 l 1.7631,0 c 1.9006,2e-5 3.2151,0.34701 3.9435,1.04099 0.7284,0.694 1.0926,1.9413 1.0926,3.7419 l 0,4.736 c 0,1.78811 -0.3705,3.03229 -1.1113,3.73252 -0.7409,0.70024 -2.0492,1.05036 -3.9248,1.05036 l -1.7631,0 c -1.8819,0 -3.1917,-0.35012 -3.9295,-1.05036 -0.7377,-0.70023 -1.1066,-1.94441 -1.1066,-3.73252 z"
         inkscape:connector-curvature="0" />
      <path
         id="path5303"
         style="fill:#c7000b;stroke:#c7000b"
         d="m -1106.3691,509.03808 5.0361,0 c 0.819,1e-5 1.3692,-0.14692 1.6505,-0.44078 0.2814,-0.29384 0.422,-0.94093 0.422,-1.94128 0,-0.95657 -0.15,-1.55678 -0.4501,-1.80062 -0.3001,-0.24382 -1.066,-0.36574 -2.2977,-0.36575 l -4.3608,0 z m 0,6.47097 5.0923,0 c 0.9253,0 1.5474,-0.14224 1.8663,-0.42671 0.3188,-0.28447 0.4783,-1.02379 0.4783,-2.21795 0,-1.00659 -0.1782,-1.65837 -0.5346,-1.95536 -0.3564,-0.29697 -1.2817,-0.44546 -2.7759,-0.44546 l -4.1264,0 z m -1.5193,1.463 0,-13.96416 6.4991,0 c 1.5005,2e-5 2.4961,0.22822 2.9869,0.68461 0.4908,0.45642 0.7362,1.38799 0.7362,2.79471 0,1.08163 -0.1203,1.8397 -0.361,2.27421 -0.2407,0.43453 -0.6643,0.73307 -1.2708,0.89562 0.7378,0.18757 1.252,0.5205 1.5427,0.99878 0.2908,0.4783 0.4361,1.28326 0.4361,2.41489 0,1.53803 -0.3032,2.57276 -0.9097,3.10419 -0.6064,0.53143 -1.8225,0.79715 -3.6481,0.79715 z"
         inkscape:connector-curvature="0" />
      <path
         id="path5305"
         style="fill:#c7000b;stroke:#c7000b"
         d="m -1094.4588,516.97205 0,-13.96416 1.5568,0 0,13.96416 z"
         inkscape:connector-curvature="0" />
      <path
         id="path5307"
         style="fill:#c7000b;stroke:#c7000b"
         d="m -1089.5071,516.97205 0,-13.96416 1.5192,0 0,12.50116 7.9153,0 0,1.463 z"
         inkscape:connector-curvature="0" />
      <path
         id="path5309"
         style="fill:#c7000b;stroke:#c7000b"
         d="m -1078.0282,516.97205 0,-13.96416 9.8002,0 0,1.48176 -8.2622,0 0,4.56719 8.0278,0 0,1.42548 -8.0278,0 0,5.02673 8.2622,0 0,1.463 z"
         inkscape:connector-curvature="0" />
      <path
         id="path5311"
         style="fill:#c7000b;stroke:#c7000b"
         d="m -1059.6563,512.42361 1.5568,0 0,0.26259 c 0,0.83154 0.062,1.44425 0.1876,1.83813 0.125,0.39389 0.3313,0.67211 0.6189,0.83466 0.2251,0.12505 0.5721,0.21414 1.041,0.26728 0.4689,0.0532 1.4349,0.0797 2.8979,0.0797 0.794,0 1.4098,-0.0516 1.8475,-0.15474 0.4376,-0.10316 0.7627,-0.27041 0.9753,-0.50174 0.1188,-0.12504 0.2063,-0.33761 0.2626,-0.63772 0.056,-0.3001 0.084,-0.70648 0.084,-1.21916 0,-1.03785 -0.1047,-1.68964 -0.3142,-1.95536 -0.2094,-0.26571 -0.6236,-0.42358 -1.2426,-0.4736 l -4.3046,-0.33761 c -1.2879,-0.10003 -2.1788,-0.42202 -2.6728,-0.96596 -0.4939,-0.54393 -0.7408,-1.45987 -0.7408,-2.74782 0,-0.81276 0.081,-1.46611 0.2438,-1.96004 0.1625,-0.49391 0.4251,-0.90342 0.7878,-1.22855 0.2813,-0.25007 0.6752,-0.42669 1.1816,-0.52987 0.5064,-0.10314 1.4005,-0.15472 2.6822,-0.15474 l 0.497,0 c 1.4318,2e-5 2.4399,0.0688 3.0245,0.20632 0.5846,0.13757 1.0738,0.37515 1.4677,0.71275 0.2688,0.22509 0.4673,0.54551 0.5955,0.96126 0.1282,0.41578 0.1922,0.93315 0.1923,1.5521 -10e-5,0.18132 0,0.32043 0,0.41733 0,0.0969 -0.01,0.18288 -0.014,0.2579 l -1.5568,0 0,-0.34699 c 0,-0.51267 -0.03,-0.90499 -0.089,-1.17697 -0.059,-0.27196 -0.1547,-0.47359 -0.286,-0.60489 -0.1938,-0.19381 -0.5393,-0.32979 -1.0363,-0.40796 -0.4971,-0.0781 -1.4396,-0.11721 -2.8275,-0.11722 -1.438,1e-5 -2.3415,0.16256 -2.7103,0.48766 -0.3689,0.32513 -0.5533,0.97535 -0.5533,1.95067 0,0.80028 0.1203,1.35204 0.361,1.65525 0.2407,0.30324 0.7049,0.48299 1.3927,0.53925 l 4.389,0.36575 c 1.1504,0.10004 1.9569,0.41734 2.4196,0.95189 0.4626,0.53456 0.6939,1.42706 0.6939,2.67748 0,0.91281 -0.059,1.59899 -0.1781,2.05852 -0.1188,0.45953 -0.3158,0.84247 -0.5909,1.14883 -0.3376,0.38138 -0.7924,0.64866 -1.3645,0.80183 -0.5721,0.15318 -1.6146,0.22977 -3.1276,0.22977 l -0.694,0 c -1.288,0 -2.1992,-0.0657 -2.7338,-0.19694 -0.5345,-0.1313 -0.98,-0.3595 -1.3364,-0.68461 -0.3501,-0.3001 -0.608,-0.70649 -0.7737,-1.21917 -0.1656,-0.51267 -0.2485,-1.16289 -0.2485,-1.95067 z"
         inkscape:connector-curvature="0" />
      <path
         id="path5313"
         style="fill:#c7000b;stroke:#c7000b"
         d="m -1045.7109,503.00789 1.5568,0 0,9.16251 c 0,0.90031 0.048,1.52865 0.1454,1.88502 0.097,0.35638 0.2641,0.64398 0.5017,0.8628 0.2501,0.22508 0.5486,0.38294 0.8956,0.4736 0.347,0.0907 0.9456,0.13598 1.7959,0.13598 l 1.463,0 c 0.8566,0 1.4599,-0.0453 1.81,-0.13598 0.3501,-0.0907 0.6502,-0.24852 0.9003,-0.4736 0.2314,-0.21257 0.3939,-0.49704 0.4877,-0.85342 0.094,-0.35637 0.1407,-0.98783 0.1407,-1.8944 l 0,-9.16251 1.5568,0 0,9.35008 c 0,1.78186 -0.3517,3.02447 -1.0551,3.72784 -0.7034,0.70336 -1.946,1.05504 -3.7278,1.05504 l -1.6881,0 c -1.7819,0 -3.0245,-0.35168 -3.7278,-1.05504 -0.7034,-0.70337 -1.0551,-1.94598 -1.0551,-3.72784 z"
         inkscape:connector-curvature="0" />
      <path
         id="path5315"
         style="fill:#c7000b;stroke:#c7000b"
         d="m -1031.2122,516.97205 0,-13.96416 1.5568,0 0,13.96416 z"
         inkscape:connector-curvature="0" />
      <path
         id="path5317"
         style="fill:#c7000b;stroke:#c7000b"
         d="m -1028.1643,504.48965 0,-1.48176 10.4568,0 0,1.48176 -4.4641,0 0,12.4824 -1.5474,0 0,-12.4824 z"
         inkscape:connector-curvature="0" />
      <path
         id="path5319"
         style="fill:#c7000b;stroke:#c7000b"
         d="m -1010.2894,507.62197 c 0,-1.78185 0.3689,-3.02446 1.1066,-3.72784 0.7378,-0.70335 2.0445,-1.05503 3.9201,-1.05505 l 1.7725,0 c 1.7193,2e-5 2.987,0.29231 3.80288,0.87687 0.8159,0.58458 1.22385,1.49583 1.22386,2.73374 l 0,0.59083 -1.59434,0 0,-0.16881 c 0,-0.96281 -0.2438,-1.63336 -0.7315,-2.01162 -0.4876,-0.37824 -1.4192,-0.56737 -2.7947,-0.56738 l -1.2285,0 c -0.9566,10e-6 -1.6443,0.0532 -2.0632,0.15943 -0.4189,0.10629 -0.7753,0.28448 -1.0691,0.53455 -0.2689,0.23134 -0.458,0.54083 -0.5674,0.92845 -0.1094,0.38764 -0.1641,1.08475 -0.1641,2.09134 l 0,3.97636 c 0,1.00034 0.055,1.69433 0.1641,2.08196 0.1094,0.38764 0.2985,0.69712 0.5674,0.92844 0.2938,0.25009 0.6439,0.42828 1.0503,0.53456 0.4064,0.10629 1.1004,0.15943 2.082,0.15943 l 1.2285,0 c 0.8878,0 1.5162,-0.0469 1.8851,-0.14067 0.3688,-0.0938 0.6877,-0.25321 0.9565,-0.47829 0.2501,-0.21257 0.4267,-0.5033 0.5299,-0.87217 0.1032,-0.36888 0.1547,-1.00034 0.1547,-1.8944 l 0,-0.8628 -3.8732,0 0,-1.41611 5.46754,0 0,2.33518 c -10e-6,1.78811 -0.36889,3.03229 -1.10663,3.73252 -0.73781,0.70024 -2.04441,1.05036 -3.92011,1.05036 l -1.7725,0 c -1.8756,0 -3.1823,-0.35012 -3.9201,-1.05036 -0.7377,-0.70023 -1.1066,-1.94441 -1.1066,-3.73252 z"
         inkscape:connector-curvature="0" />
      <path
         id="path5321"
         style="fill:#c7000b;stroke:#c7000b"
         d="m -995.78129,503.00789 1.55678,0 0,9.16251 c 0,0.90031 0.0485,1.52865 0.14536,1.88502 0.0969,0.35638 0.26415,0.64398 0.50174,0.8628 0.25008,0.22508 0.54862,0.38294 0.89562,0.4736 0.34699,0.0907 0.94563,0.13598 1.79592,0.13598 l 1.46301,0 c 0.85653,0 1.45986,-0.0453 1.80999,-0.13598 0.35011,-0.0907 0.65021,-0.24852 0.90031,-0.4736 0.23132,-0.21257 0.39387,-0.49704 0.48766,-0.85342 0.0938,-0.35637 0.14067,-0.98783 0.14068,-1.8944 l 0,-9.16251 1.55678,0 0,9.35008 c -1e-5,1.78186 -0.35169,3.02447 -1.05505,3.72784 -0.70337,0.70336 -1.94599,1.05504 -3.72784,1.05504 l -1.68807,0 c -1.78187,0 -3.02448,-0.35168 -3.72784,-1.05504 -0.70337,-0.70337 -1.05505,-1.94598 -1.05505,-3.72784 z"
         inkscape:connector-curvature="0" />
      <path
         id="path5323"
         style="fill:#c7000b;stroke:#c7000b"
         d="m -981.28258,516.97205 0,-13.96416 2.38207,0 7.56821,12.46364 0,-12.46364 1.53803,0 0,13.96416 -2.38207,0 -7.56821,-12.4824 0,12.4824 z"
         inkscape:connector-curvature="0" />
      <path
         id="path5325"
         style="fill:#c7000b;stroke:#c7000b"
         d="m -966.38999,516.97205 0,-13.96416 6.74294,0 c 1.75059,2e-5 2.97913,0.34701 3.68563,1.04098 0.70648,0.694 1.05973,1.90379 1.05974,3.62937 l 0,4.6047 c -10e-6,1.73185 -0.35482,2.94632 -1.06443,3.64344 -0.70963,0.69711 -1.93661,1.04567 -3.68094,1.04567 z m 1.53803,-1.3786 4.95169,0 c 1.34421,0 2.24451,-0.2282 2.70093,-0.68461 0.45639,-0.4564 0.6846,-1.32545 0.68461,-2.60714 l 0,-4.51092 c -10e-6,-1.35045 -0.22665,-2.25389 -0.67992,-2.7103 -0.45329,-0.4564 -1.35516,-0.6846 -2.70562,-0.68461 l -4.95169,0 z"
         inkscape:connector-curvature="0" />
      <path
         id="path5327"
         style="fill:#c7000b;stroke:#c7000b"
         d="m -950.04377,512.02035 6.04894,0 -2.78533,-7.5307 -0.49704,0 z m -3.41367,4.9517 5.15801,-13.96416 2.5415,0 5.18615,13.96416 -1.5943,0 -1.3317,-3.5731 -7.0618,0 -1.30357,3.5731 z"
         inkscape:connector-curvature="0" />
      <path
         id="path5329"
         style="fill:#c7000b;stroke:#c7000b"
         d="m -938.70551,516.97205 0,-13.96416 2.5415,0 4.78288,12.44489 4.736,-12.44489 2.56025,0 0,13.96416 -1.53802,0 0,-12.66059 -4.8204,12.66059 -1.90378,0 -4.8204,-12.66059 0,12.66059 z"
         inkscape:connector-curvature="0" />
      <path
         id="path5331"
         style="fill:#c7000b;stroke:#c7000b"
         d="m -914.34092,503.00789 1.55678,0 0,9.16251 c 0,0.90031 0.0485,1.52865 0.14536,1.88502 0.0969,0.35638 0.26415,0.64398 0.50174,0.8628 0.25008,0.22508 0.54862,0.38294 0.89562,0.4736 0.34698,0.0907 0.94563,0.13598 1.79592,0.13598 l 1.463,0 c 0.85654,0 1.45987,-0.0453 1.81,-0.13598 0.35011,-0.0907 0.65021,-0.24852 0.90031,-0.4736 0.23131,-0.21257 0.39387,-0.49704 0.48766,-0.85342 0.0938,-0.35637 0.14067,-0.98783 0.14068,-1.8944 l 0,-9.16251 1.55678,0 0,9.35008 c -10e-6,1.78186 -0.3517,3.02447 -1.05505,3.72784 -0.70338,0.70336 -1.94599,1.05504 -3.72784,1.05504 l -1.68808,0 c -1.78186,0 -3.02447,-0.35168 -3.72783,-1.05504 -0.70337,-0.70337 -1.05505,-1.94598 -1.05505,-3.72784 z"
         inkscape:connector-curvature="0" />
      <path
         id="path5333"
         style="fill:#c7000b;stroke:#c7000b"
         d="m -899.84221,516.97205 0,-13.96416 2.38206,0 7.56822,12.46364 0,-12.46364 1.53803,0 0,13.96416 -2.38207,0 -7.56821,-12.4824 0,12.4824 z"
         inkscape:connector-curvature="0" />
      <path
         id="path5335"
         style="fill:#c7000b;stroke:#c7000b"
         d="m -884.94962,516.97205 0,-13.96416 1.55679,0 0,13.96416 z"
         inkscape:connector-curvature="0" />
      <path
         id="path5337"
         style="fill:#c7000b;stroke:#c7000b"
         d="m -880.4387,507.62197 c 0,-1.7881 0.3423,-3.03227 1.02691,-3.73253 0.68461,-0.70022 1.89283,-1.05034 3.62468,-1.05036 l 1.63181,0 c 1.71933,2e-5 2.92599,0.30168 3.61999,0.905 0.69397,0.60335 1.04097,1.62713 1.04098,3.07136 l 0,0.60959 -1.5943,0 0,-0.38451 c -1e-5,-1.0566 -0.21571,-1.77872 -0.64709,-2.16636 -0.43141,-0.38762 -1.27545,-0.58144 -2.53212,-0.58145 l -1.07849,0 c -0.84405,10e-6 -1.45832,0.0516 -1.84282,0.15474 -0.38451,0.10317 -0.70494,0.27667 -0.96127,0.52049 -0.25634,0.23759 -0.43609,0.54863 -0.53925,0.93313 -0.10316,0.38452 -0.15474,1.08632 -0.15474,2.10541 l 0,3.97636 c 0,1.01285 0.0516,1.71152 0.15474,2.09603 0.10316,0.38451 0.28291,0.69555 0.53925,0.93313 0.25633,0.24384 0.56738,0.41733 0.93313,0.52049 0.36575,0.10316 0.9894,0.15474 1.87096,0.15474 l 1.07849,0 c 1.28793,0 2.14447,-0.20319 2.56963,-0.60958 0.42513,-0.40639 0.63771,-1.18478 0.63772,-2.33518 -1e-5,-0.17505 -0.002,-0.30947 -0.005,-0.40326 -0.003,-0.0938 -0.008,-0.18131 -0.0141,-0.26259 l 1.58492,0 0,0.91906 c -10e-6,1.55054 -0.33607,2.62903 -1.00816,3.23549 -0.67212,0.60646 -1.88972,0.90968 -3.65281,0.90968 l -1.63181,0 c -1.73185,0 -2.94007,-0.35012 -3.62468,-1.05036 -0.68461,-0.70023 -1.02691,-1.94441 -1.02691,-3.73252 z"
         inkscape:connector-curvature="0" />
      <path
         id="path5339"
         style="fill:#c7000b;stroke:#c7000b"
         d="m -860.96955,504.29271 -0.86279,0 c -0.98159,10e-6 -1.67558,0.0532 -2.08196,0.15943 -0.4064,0.10629 -0.75652,0.28448 -1.05036,0.53455 -0.2751,0.2376 -0.46892,0.55802 -0.58145,0.96127 -0.11254,0.40327 -0.16881,1.0957 -0.16881,2.07727 l 0,3.95761 c 0,0.97534 0.0563,1.66151 0.16881,2.05852 0.11253,0.39701 0.30635,0.7143 0.58145,0.95188 0.29384,0.25009 0.64396,0.42828 1.05036,0.53456 0.40638,0.10629 1.10037,0.15943 2.08196,0.15943 l 0.86279,0 c 0.98158,0 1.67869,-0.0531 2.09134,-0.15943 0.41264,-0.10628 0.76588,-0.28447 1.05974,-0.53456 0.26883,-0.23132 0.45796,-0.5408 0.56738,-0.92844 0.1094,-0.38763 0.16411,-1.08162 0.16412,-2.08196 l 0,-3.97636 c -1e-5,-0.98158 -0.0563,-1.674 -0.16881,-2.07728 -0.11255,-0.40325 -0.30636,-0.72367 -0.58144,-0.96126 -0.28761,-0.24382 -0.63461,-0.41732 -1.04099,-0.52049 -0.40639,-0.10315 -1.10351,-0.15473 -2.09134,-0.15474 z m -6.33967,3.32926 c 0,-1.78185 0.36888,-3.02446 1.10663,-3.72784 0.73775,-0.70335 2.04757,-1.05503 3.92947,-1.05505 l 1.76311,0 c 1.90064,2e-5 3.21515,0.34701 3.94353,1.04099 0.72836,0.694 1.09255,1.9413 1.09256,3.7419 l 0,4.736 c -10e-6,1.78811 -0.37045,3.03229 -1.11131,3.73252 -0.74089,0.70024 -2.04915,1.05036 -3.92478,1.05036 l -1.76311,0 c -1.8819,0 -3.19172,-0.35012 -3.92947,-1.05036 -0.73775,-0.70023 -1.10663,-1.94441 -1.10663,-3.73252 z"
         inkscape:connector-curvature="0" />
      <path
         id="path5341"
         style="fill:#c7000b;stroke:#c7000b"
         d="m -846.54584,504.48965 -4.45465,0 0,5.58941 4.45465,0 c 1.16289,10e-6 1.92409,-0.14379 2.28359,-0.4314 0.35949,-0.28759 0.53924,-0.80339 0.53925,-1.5474 l 0,-1.63181 c -1e-5,-0.7565 -0.17351,-1.27542 -0.52049,-1.55678 -0.347,-0.28134 -1.11445,-0.42201 -2.30235,-0.42202 z m -5.99268,12.4824 0,-13.96416 6.30216,0 c 1.56928,2e-5 2.64934,0.23291 3.24017,0.69868 0.59082,0.4658 0.88623,1.29577 0.88624,2.48991 l 0,2.1101 c -10e-6,0.73151 -0.1485,1.30514 -0.44546,1.7209 -0.29699,0.41578 -0.74871,0.6768 -1.35515,0.78308 0.66271,0.15631 1.1285,0.44078 1.39735,0.85342 0.26883,0.41265 0.40325,1.06287 0.40326,1.95067 l 0,3.3574 -1.61305,0 0,-2.87911 c -1e-5,-1.00034 -0.15788,-1.67714 -0.4736,-2.03039 -0.31574,-0.35324 -0.93314,-0.52986 -1.85219,-0.52987 l -4.9517,0 0,5.43937 z"
         inkscape:connector-curvature="0" />
      <path
         id="path5343"
         style="fill:#c7000b;stroke:#c7000b"
         d="m -839.10892,516.97205 0,-13.96416 2.38207,0 7.56821,12.46364 0,-12.46364 1.53803,0 0,13.96416 -2.38207,0 -7.56821,-12.4824 0,12.4824 z"
         inkscape:connector-curvature="0" />
    </g>
  </g>
</svg>
